<svg width="152" height="106" viewBox="0 0 152 106" fill="none" xmlns="http://www.w3.org/2000/svg">
<path d="M99.0244 1.03403H9.91935C3.9663 1.03403 0.547119 4.28525 0.547119 9.93611V97.215C0.547119 102.453 4.1162 105.833 9.63333 105.833C39.4394 105.833 69.2319 105.833 99.0381 105.833C104.732 105.833 108.26 102.466 108.26 97.0472V51.0533C108.26 37.3002 108.26 23.5343 108.26 9.76839C108.26 4.37555 104.719 1.02112 99.0244 1.02112V1.03403ZM98.8201 102.234H10.1646C6.09149 102.234 4.34778 100.595 4.34778 96.7505V53.3239C4.34778 38.9 4.34778 24.4632 4.34778 10.0393C4.34778 6.29783 6.11874 4.62069 10.0829 4.62069H98.8882C102.648 4.62069 104.473 6.33653 104.473 9.87154C104.473 38.8742 104.473 67.864 104.473 96.8666C104.473 100.518 102.675 102.221 98.8064 102.221L98.8201 102.234Z" fill="#385785"/>
<path d="M150.368 54.3173C148.093 56.6525 146.05 58.7296 144.156 60.6391C142.372 62.4324 141.323 61.4905 140.968 61.1808C139.756 60.11 140.71 58.807 141.377 58.1232C141.949 57.5426 142.521 56.975 143.175 56.2913L144.946 54.485H137.277C131.76 54.485 126.242 54.485 120.725 54.485C120.153 54.485 119.499 54.4592 118.968 54.2785C118.123 53.9818 117.742 53.3626 117.865 52.4208C117.96 51.5951 118.45 51.1048 119.349 50.9371C119.69 50.8726 120.071 50.8725 120.453 50.8854H144.401L142.412 49.0534C141.827 48.5244 141.323 48.0472 140.805 47.5698C140.301 47.0925 139.252 45.8925 140.355 44.7443C140.723 44.3573 141.132 44.1638 141.581 44.138C142.167 44.1122 142.807 44.396 143.461 44.9637C145.791 47.015 148.079 49.0277 150.232 50.9629C151.608 52.1886 151.635 53.0013 150.354 54.3173H150.368Z" fill="#385785"/>
<path d="M150.6 98.1825C148.448 100.427 146.214 102.698 143.761 105.136C142.89 106.001 141.854 106.078 141.01 105.343C140.22 104.659 140.206 103.601 140.983 102.698C141.269 102.375 141.568 102.066 141.895 101.743C142.059 101.576 142.236 101.395 142.399 101.227C142.713 100.905 143.026 100.582 143.38 100.195L144.756 98.763L143.584 98.7115C143.326 98.7115 143.08 98.6857 142.862 98.6857C142.426 98.6599 142.072 98.6469 141.718 98.6469C136.255 98.6469 130.793 98.6469 125.33 98.6469H120.535C120.303 98.6469 120.058 98.6469 119.827 98.6469C118.573 98.5695 117.811 97.8728 117.811 96.8148C117.811 95.7182 118.587 95.0603 119.84 95.0603C123.845 95.0344 127.932 95.0344 131.883 95.0473H144.497L143.489 94.1572C143.094 93.796 142.726 93.4734 142.399 93.1767C141.732 92.5832 141.173 92.093 140.628 91.5769C139.675 90.6738 139.579 89.6417 140.369 88.8676C141.187 88.0806 142.222 88.0934 143.149 88.8933C145.9 91.2801 148.298 93.396 150.477 95.3957C151.526 96.3504 151.567 97.202 150.586 98.2212L150.6 98.1825Z" fill="#385785"/>
<path d="M150.45 10.0779C148.352 12.2453 146.159 14.4773 143.911 16.7093C143.366 17.2511 142.78 17.535 142.208 17.5479H142.181C141.731 17.5479 141.309 17.3672 140.941 17.0189C140.151 16.2964 140.219 15.2126 141.118 14.2579C141.704 13.6387 142.303 13.0323 143.012 12.3227C143.352 11.9744 143.72 11.6131 144.115 11.2132L144.973 10.336H136.051C130.819 10.336 125.588 10.336 120.357 10.336C118.423 10.336 118.014 9.57465 117.878 8.90377C117.755 8.3103 117.878 7.79437 118.205 7.42022C118.586 6.98157 119.254 6.73639 120.085 6.72349C124.335 6.71059 128.599 6.72349 132.849 6.72349H144.51L143.502 5.8332C143.121 5.48486 142.78 5.18815 142.453 4.89142C141.799 4.31085 141.254 3.82063 140.709 3.31747C139.715 2.38856 139.592 1.40806 140.342 0.595265C140.696 0.221121 141.118 0.0147465 141.581 0.00184501C142.14 -0.023958 142.753 0.221089 143.325 0.724249C146.172 3.21424 148.338 5.12373 150.341 6.91704C151.58 8.02657 151.608 8.87801 150.45 10.0779Z" fill="#385785"/>
<path d="M92.4986 53.4915C92.4441 73.8243 74.8029 89.9253 53.8786 89.5383C33.1315 89.1513 16.294 73.3341 16.3349 53.3367C16.3758 33.4684 33.5947 17.2382 54.587 17.3027C75.5385 17.3801 92.4986 33.5716 92.4986 53.4915ZM80.3336 75.4887C80.4426 75.3726 80.538 75.2821 80.6197 75.1918C85.5374 69.7087 88.4799 63.4257 89.1065 56.2137C89.1746 55.388 89.0657 55.1816 88.2756 54.9494C88.0712 54.8849 87.8397 54.8848 87.6217 54.8848C81.1101 54.8848 74.5985 54.8719 68.1006 54.859C66.9699 54.859 66.3978 55.2074 65.9891 56.2008C65.5259 57.2974 65.1445 58.4328 64.6405 59.5037C64.3544 60.11 64.4906 60.4842 64.9674 60.9357C69.9396 65.619 74.8846 70.3279 79.8296 75.037C79.9794 75.1789 80.1429 75.3209 80.32 75.4758L80.3336 75.4887ZM31.0609 77.9786C31.9463 78.6495 32.8318 79.3591 33.7581 80.0042C38.8802 83.5779 44.6017 85.6809 50.9362 86.2743C52.3802 86.4163 52.6662 86.1711 52.6662 84.7906C52.6662 83.3586 52.7071 81.9265 52.7071 80.4945C52.7207 75.7983 52.7343 71.115 52.7616 66.4189C52.7616 65.3867 52.2848 64.7288 51.304 64.3547C50.4866 64.045 49.6148 63.8385 48.8792 63.4127C47.5578 62.6644 46.7404 63.0516 45.7324 64.0321C42.1224 67.5413 38.4034 70.9343 34.7253 74.3919C33.4993 75.5402 32.3141 76.7271 31.0472 77.9528L31.0609 77.9786ZM56.0447 20.4507C56.0447 20.7217 56.0447 20.9023 56.0447 21.0958C56.031 26.6564 56.0174 32.2168 56.0037 37.7774C56.0037 38.7321 55.9901 39.6869 56.0718 40.6417C56.1536 41.6222 56.7667 42.2542 57.7475 42.6026C58.8509 42.9896 59.9407 43.4026 61.0168 43.8541C61.4664 44.0476 61.7252 44.0089 62.0794 43.6735C67.1334 38.8612 72.2009 34.0618 77.2685 29.2624C77.4047 29.1334 77.5274 29.0045 77.6636 28.8496C71.4654 23.7019 64.3135 20.8894 56.0447 20.4507ZM28.4454 31.2751C27.3011 32.7459 26.1159 34.1393 25.0942 35.6359C21.9201 40.2417 20.1901 45.3249 19.6861 50.7822C19.6725 50.9499 19.7541 51.2338 19.8767 51.2983C20.299 51.4918 20.7623 51.724 21.2118 51.724C27.737 51.7627 34.2758 51.7499 40.801 51.7628C41.7955 51.7628 42.463 51.3499 42.8444 50.4855C43.3348 49.3502 43.7979 48.2148 44.3292 47.0924C44.5472 46.6409 44.4655 46.3698 44.0977 46.0215C39.0709 41.2737 34.0442 36.5261 29.0311 31.7654C28.8813 31.6235 28.7178 31.4815 28.4726 31.2622L28.4454 31.2751ZM77.7044 77.9657C75.4022 75.7466 73.1409 73.5533 70.8251 71.3214C66.6293 74.8177 61.6707 76.5981 56.1672 77.1658V86.4033C64.3816 85.9002 71.5334 83.165 77.6908 77.9528L77.7044 77.9657ZM38.0084 35.494C42.2723 32.088 47.1491 30.2171 52.639 29.7269V20.4507C44.4382 20.9152 37.3137 23.6761 31.1835 28.8496C33.4857 31.0816 35.7198 33.262 38.022 35.494H38.0084ZM89.2019 51.6465C88.657 43.9314 85.769 37.1839 80.2928 31.3137C78.0314 33.5844 75.811 35.8165 73.5905 38.0355C73.4543 37.9968 73.5223 38.1259 73.6177 38.2291C76.9552 41.9705 78.7807 46.3054 79.3664 51.1435C79.4209 51.5564 79.598 51.6853 80.0339 51.6853C82.9083 51.6724 85.769 51.6853 88.6434 51.6853C88.8069 51.6853 88.9839 51.6594 89.2019 51.6465ZM19.6044 55.0011C19.8768 62.2388 24.0998 71.9537 28.2819 75.1661C30.5705 72.9987 32.8591 70.8311 35.1885 68.625C31.742 64.7158 29.903 60.11 29.399 54.9881H19.6044V55.0011ZM54.4372 45.1443C49.5467 45.1443 45.6915 48.8727 45.6778 53.6076C45.6642 58.0328 49.5875 61.6969 54.369 61.7098C59.2731 61.7227 63.0875 58.1231 63.1011 53.4786C63.1011 48.8599 59.246 45.1443 54.4372 45.1443ZM68.5229 69.0765C66.3705 66.9865 64.2727 64.9609 62.1612 62.9483C62.0522 62.8451 61.807 62.7677 61.6708 62.8193C60.145 63.387 58.6193 63.9675 57.1208 64.5997C56.3852 64.9093 56.0447 65.49 56.0447 66.3028C56.0719 68.6638 56.0447 71.0377 56.0447 73.3986C56.0447 73.618 56.0447 73.8243 56.0447 74.0694C60.7581 73.5275 64.9401 72.1084 68.5229 69.0894V69.0765ZM76.0834 51.7498C75.6474 47.2601 73.9991 43.3638 70.8387 39.9449C68.6727 42.0221 66.5612 44.0347 64.4634 46.0731C64.3408 46.1893 64.2726 46.4859 64.3407 46.6407C64.872 47.9309 65.4306 49.2212 65.9891 50.4984C66.3705 51.3628 67.0653 51.7627 68.0461 51.7498C70.035 51.7369 72.0374 51.7498 74.0263 51.7498C74.6802 51.7498 75.3341 51.7498 76.0697 51.7498H76.0834ZM52.7752 32.8749C48.525 33.1716 43.7435 34.7714 40.5422 37.6355C40.5694 37.6871 40.5831 37.7516 40.6239 37.7903C42.7354 39.7771 44.8469 41.7769 46.972 43.7508C47.0946 43.854 47.3807 43.9186 47.5306 43.8541C48.7975 43.4026 50.0643 42.9381 51.304 42.4221C52.1894 42.0608 52.7344 41.4286 52.7208 40.4481C52.7208 39.6998 52.7616 38.9515 52.7616 38.2032C52.7616 36.4228 52.7616 34.6424 52.7616 32.862L52.7752 32.8749ZM37.8721 66.7543C40.0518 64.6643 42.1632 62.6516 44.2475 60.6132C44.3837 60.4713 44.411 60.1229 44.3429 59.9294C43.7298 58.4457 43.0623 56.975 42.4493 55.4913C42.2858 55.1043 42.0952 54.9623 41.6456 54.9623C38.8666 54.9881 36.0876 54.9623 33.295 54.9623C33.1043 54.9623 32.9135 54.9882 32.682 55.0011C33.1588 59.3876 34.6845 63.3225 37.8721 66.7543Z" fill="#385785"/>
</svg>
