<svg width="208" height="288" viewBox="0 0 208 288" fill="none" xmlns="http://www.w3.org/2000/svg">
<path d="M166.586 40.5373C131.494 8.47319 76.3474 8.47319 41.2556 40.6275C29.7454 51.2208 22.5039 63.028 18.3253 75.1128C13.7794 87.7525 12.5737 100.58 13.128 112.38C14.1467 137.195 23.4325 160.989 38.1026 181.066L46.827 193.054L103.921 271.5L131.126 234.233L169.842 181.073C184.513 160.996 193.798 137.202 194.907 112.387C195.836 89.1539 190.264 62.1956 166.592 40.5443L166.586 40.5373Z" stroke="#FCF6E5" stroke-width="17" stroke-linecap="round" stroke-linejoin="round"/>
<path d="M152.003 110.567C152.003 137.575 130.525 159.5 104.068 159.5C99.0952 159.5 94.3766 158.701 89.7953 157.362C71.9855 151.613 58.6264 135.703 56.3942 116.317C56.1332 114.444 56.0027 112.572 56.0027 110.567C56.0027 83.4255 77.4803 61.5005 104.068 61.5005C130.656 61.5005 152.003 83.4255 152.003 110.567Z" stroke="#FCF6E5" stroke-width="17" stroke-linecap="round" stroke-linejoin="round"/>
</svg>
