<svg width="108" height="149" viewBox="0 0 108 149" fill="none" xmlns="http://www.w3.org/2000/svg">
<path d="M42.6941 21.4455C42.2446 21.4455 41.9177 21.4455 41.5771 21.4455C38.5665 21.457 35.5559 21.4685 32.5453 21.5029C31.0605 21.5144 30.393 22.0306 30.2704 23.2696C30.2159 23.7858 30.2295 24.302 30.2295 24.8182V32.8024C28.118 32.8024 26.1155 32.7451 24.113 32.8024C15.9122 33.0777 8.67865 38.5726 7.5616 45.4212C7.28915 47.1305 7.24827 48.8857 7.24827 50.6179C7.22102 55.9981 7.27551 61.3897 7.28914 66.7699C7.28914 68.2268 7.01669 68.5594 5.42285 69.0642C1.98997 70.154 0.0692072 72.3796 0.0283396 75.454C-0.0261506 80.0656 0.0147037 84.6656 0.0147037 89.2772C0.0147037 92.4089 1.97634 94.7721 5.45008 95.8619C6.86683 96.2978 7.28914 96.7911 7.28914 98.076C7.28914 99.464 7.23463 100.852 7.23463 102.24C7.24826 107.104 7.2619 111.968 7.30277 116.832C7.33002 120.618 8.52878 124.071 11.6211 126.927C14.1004 129.221 17.1519 130.77 20.6665 131.688C21.6064 131.929 22.5327 132.25 23.5 132.537C21.5383 136.127 19.5903 139.603 17.7512 143.125C17.1246 144.33 16.1574 144.742 14.6862 144.731C10.7765 144.697 6.86685 144.708 2.95718 144.72C2.53488 144.72 2.12618 144.731 1.70389 144.8C0.736685 144.938 0.0283263 145.66 0.0147037 146.486C-0.0125414 147.312 0.682197 148.046 1.66302 148.207C2.15343 148.287 2.65747 148.299 3.16151 148.299C36.7956 148.299 70.4296 148.299 104.064 148.287C104.704 148.287 105.371 148.104 105.971 147.897C106.734 147.633 107.129 147.094 107.02 146.371C106.911 145.614 106.23 144.926 105.426 144.823C104.963 144.754 104.486 144.731 104.009 144.731C100.018 144.742 96.0264 144.754 92.035 144.777C90.8225 144.788 89.9507 144.398 89.4467 143.435C87.7575 140.292 86.0274 137.16 84.3519 134.028C84.0794 133.5 83.8614 132.95 83.589 132.342C84.3655 132.147 85.0194 131.952 85.6869 131.825C93.1656 130.449 99.0506 124.897 99.6364 118.473C99.8407 116.247 99.6772 114.01 99.6908 111.784C99.7181 107.322 99.7317 102.848 99.7453 98.3857C99.7453 96.7223 100.018 96.3896 101.884 95.7816C105.031 94.7492 107.006 92.3402 107.006 89.5067C107.006 84.8033 107.006 80.0999 107.006 75.3965C106.993 72.586 105.044 70.2228 101.925 69.1789C100.004 68.5479 99.7453 68.2382 99.7453 66.4601C99.7453 60.1851 99.7589 53.9103 99.7453 47.6353C99.7317 41.1423 94.269 35.0509 86.8039 33.399C84.7469 32.9401 82.5673 32.8713 80.4422 32.7107C79.257 32.6189 78.0582 32.6877 76.805 32.6877V31.7585C76.805 29.0512 76.8322 26.3554 76.805 23.6481C76.7913 22.0879 76.0694 21.5029 74.2712 21.4914C71.8736 21.4914 69.476 21.4914 67.0648 21.4914H64.354L64.2041 2.33387C64.2041 0.567241 63.5639 0.0165701 61.4524 0.0050985C56.2077 0.0050985 50.9494 -0.00637312 45.7047 0.0050985C43.4842 0.0050985 42.8712 0.544225 42.8712 2.40263L42.7077 21.4455H42.6941ZM47.2713 3.64151H59.8176V21.3078H47.2713V3.64151ZM34.2482 25.1508C34.2482 24.7034 34.6841 24.3364 35.2153 24.3364H71.6556C72.1869 24.3364 72.6228 24.7034 72.6228 25.1508V31.747C72.6228 32.1944 72.1869 32.5616 71.6556 32.5616H35.2153C34.6841 32.5616 34.2482 32.1944 34.2482 31.747V25.1508ZM11.4713 67.7564C11.4713 61.2405 11.4713 54.7362 11.4713 48.2203C11.4713 42.0371 16.1711 37.3681 23.3638 36.4045C24.3173 36.2783 25.3118 36.2669 26.279 36.2669C44.4242 36.2669 62.5558 36.2669 80.701 36.2554C84.8831 36.2554 88.6157 37.1845 91.6263 39.7656C94.2691 42.0255 95.4406 44.7903 95.4815 47.9336L95.3044 68.571H11.4576V67.7679L11.4713 67.7564ZM4.1832 88.4398C4.1832 84.2985 4.1832 80.1688 4.1832 76.0275C4.1832 75.5916 4.22409 75.1327 4.33307 74.6968C4.67363 73.3202 5.72257 72.4828 7.39814 72.2878C8.02478 72.2189 8.67865 72.173 9.30529 72.173C38.5529 72.173 67.8005 72.173 97.0481 72.173C98.0153 72.173 99.0097 72.2189 99.9633 72.3795C101.721 72.6778 102.783 73.7791 102.797 75.2819C102.824 80.0311 102.824 84.7689 102.797 89.5182C102.783 91.3192 101.285 92.581 99.1187 92.7301C98.819 92.7531 98.5057 92.7416 98.1924 92.7416H9.29165C5.42285 92.7416 4.16956 91.6977 4.16956 88.4398H4.1832ZM16.0212 125.665C13.2694 123.589 11.8391 120.939 11.5802 117.865C11.444 116.178 11.4849 114.48 11.4849 112.794C11.4713 107.597 11.4849 102.401 11.4849 97.2156V96.2748H92.8796C93.2474 96.2748 93.6015 96.2749 93.9557 96.3093C94.9093 96.4125 95.3997 96.8255 95.4951 97.6285C95.5359 97.9383 95.5496 98.2366 95.5496 98.5463C95.5496 104.133 95.5632 109.731 95.5496 115.329C95.5496 117.394 95.4678 119.459 94.5143 121.421C92.3755 125.734 88.4522 128.005 83.0305 128.567C82.2948 128.648 81.532 128.648 80.7828 128.648C62.4196 128.648 44.0564 128.648 25.6932 128.648C22.056 128.648 18.7593 127.753 16.0212 125.677V125.665ZM30.4747 143.504C29.7936 144.329 28.9217 144.708 27.7229 144.685C25.7204 144.639 23.7179 144.674 21.5792 144.674C22.1241 143.676 22.6281 142.804 23.1185 141.909C24.617 139.179 26.1155 136.46 27.5731 133.718C28.0772 132.789 28.84 132.238 30.0797 132.25C33.0085 132.296 35.9374 132.342 38.8526 132.399C39.125 132.399 39.3975 132.456 39.8198 132.502C37.9671 134.682 36.2098 136.735 34.4525 138.8C33.1175 140.372 31.7689 141.92 30.4611 143.504H30.4747ZM34.9293 144.662C35.0519 144.467 35.1336 144.295 35.2562 144.157C38.3349 140.521 41.4136 136.896 44.4923 133.271C45.0917 132.571 45.8818 132.215 46.9035 132.215C51.3853 132.215 55.8807 132.215 60.3762 132.215C61.1799 132.215 61.8474 132.433 62.3242 133.007C65.5664 136.804 68.7949 140.59 72.0371 144.387C72.0779 144.444 72.1052 144.502 72.1869 144.662H34.9293ZM78.3579 144.616C77.922 144.616 77.3499 144.352 77.0911 144.054C73.7399 140.188 70.416 136.311 67.0785 132.41C67.2011 132.342 67.2556 132.284 67.31 132.284C70.5795 132.284 73.8352 132.307 77.1047 132.33C78.1536 132.33 78.862 132.743 79.3115 133.569C81.2595 137.148 83.2484 140.705 85.2237 144.284C85.2645 144.364 85.2918 144.456 85.3735 144.662C82.976 144.662 80.6602 144.697 78.3579 144.628V144.616Z" fill="#385785"/>
</svg>
