<svg width="184" height="197" viewBox="0 0 184 197" fill="none" xmlns="http://www.w3.org/2000/svg">
<path d="M177.71 196.44H9.5V172.94H177.71V196.44ZM15.5 190.44H171.71V178.94H15.5V190.44Z" fill="#395886"/>
<path d="M161.2 162.59H30L29.1 161.57C27.85 160.15 -1.37004 126.27 0.999959 78.9199C1.62996 66.2999 4.56996 54.27 9.73996 43.16C22.95 14.76 52.35 -2.28005 82.92 0.759947C104.34 2.88995 123.11 12.8599 138.71 30.4L140.54 32.4599L126.46 47.2899L124.4 46.0499C124.14 45.8899 97.88 30.3699 80.72 36.8199C74.59 39.1199 70.43 43.8999 68 51.4299C65.91 57.9099 65.63 64.9499 67.2 71.7899C68.52 77.5699 71.43 85.67 77.78 91.4399C90.43 102.94 154.27 156.76 154.91 157.3L161.19 162.59H161.2ZM32.77 156.59H144.78C128.25 142.63 84.1 105.28 73.75 95.88C66.25 89.06 62.87 79.74 61.36 73.13C59.55 65.2299 59.88 57.0899 62.3 49.5899C65.29 40.3399 70.78 34.1499 78.63 31.1999C95.61 24.8299 118.38 35.9099 125.39 39.7199L132.38 32.3599C118.2 17.25 101.37 8.62995 82.33 6.73995C54.31 3.94995 27.32 19.5999 15.18 45.6999C10.34 56.1099 7.58996 67.3899 6.98996 79.2299C4.96996 119.69 28.02 150.68 32.77 156.6V156.59Z" fill="#395886"/>
<path d="M131.42 60.36L135.74 71.16C136.47 72.98 138.49 73.91 140.34 73.3C142.35 72.63 143.39 70.41 142.61 68.44L138.37 57.61C137.63 55.71 135.49 54.77 133.59 55.51L133.51 55.54C131.59 56.29 130.65 58.45 131.42 60.36Z" fill="#395886"/>
<path d="M142.14 55.33L149.65 64.21C150.91 65.71 153.12 65.96 154.69 64.78C156.38 63.51 156.67 61.08 155.32 59.45L147.88 50.51C146.58 48.94 144.25 48.73 142.68 50.03L142.61 50.09C141.03 51.4 140.82 53.75 142.14 55.33Z" fill="#395886"/>
<path d="M151.2 47.6099L160.6 54.4699C162.18 55.6199 164.39 55.3499 165.63 53.8299C166.98 52.1999 166.68 49.7699 164.98 48.5099L155.64 41.5799C154 40.3699 151.69 40.7099 150.47 42.3399L150.42 42.4099C149.19 44.0599 149.55 46.3899 151.21 47.6099H151.2Z" fill="#395886"/>
<path d="M143.09 82.5399L147.41 93.3399C148.14 95.1599 150.16 96.0899 152.01 95.4799C154.02 94.8099 155.06 92.5899 154.28 90.6199L150.04 79.7899C149.3 77.8899 147.16 76.9499 145.26 77.6899L145.18 77.7199C143.26 78.4699 142.32 80.6299 143.09 82.5399Z" fill="#395886"/>
<path d="M157.31 75.17L164.82 84.05C166.08 85.55 168.29 85.8 169.86 84.62C171.55 83.35 171.84 80.92 170.49 79.29L163.05 70.35C161.75 68.78 159.42 68.57 157.85 69.87L157.78 69.93C156.2 71.24 155.99 73.59 157.31 75.17Z" fill="#395886"/>
<path d="M152.43 104.71L156.75 115.51C157.48 117.33 159.5 118.26 161.35 117.65C163.36 116.98 164.4 114.76 163.62 112.79L159.38 101.96C158.64 100.06 156.5 99.1199 154.6 99.8599L154.52 99.8899C152.6 100.64 151.66 102.8 152.43 104.71Z" fill="#395886"/>
<path d="M172.51 95.0199L174.15 96.9299C175.42 98.4099 177.62 98.6499 179.18 97.4899H179.2C180.89 96.2099 181.18 93.7799 179.83 92.1499L178.22 90.2099C176.92 88.6399 174.59 88.4199 173.02 89.7299L172.97 89.7699C171.38 91.0899 171.18 93.4499 172.52 95.0199H172.51Z" fill="#395886"/>
<path d="M168.7 65.1099L178.1 71.9699C179.68 73.1199 181.89 72.8499 183.13 71.3299C184.48 69.6999 184.18 67.2699 182.48 66.0099L173.14 59.0799C171.5 57.8699 169.19 58.2099 167.97 59.8399L167.92 59.9099C166.69 61.5599 167.05 63.8899 168.71 65.1099H168.7Z" fill="#395886"/>
<path d="M46.36 93.46L37.56 112.33C37.56 112.33 29.15 130.88 46.36 130.94C65.51 131 55.79 112.2 55.79 112.2L46.36 93.46Z" fill="#395886"/>
</svg>
