<svg width="203" height="162" viewBox="0 0 203 162" fill="none" xmlns="http://www.w3.org/2000/svg">
<path d="M129.97 19.83C130.22 21.23 130.17 22.63 129.81 23.89C129.06 26.54 127.37 28.54 124.65 29.99C123.69 30.5 122.87 30.07 122.48 29.42C121.89 28.42 122.48 27.67 123.1 27.21C123.28 27.07 123.48 26.94 123.67 26.8C124.08 26.53 124.55 26.21 124.97 25.81C127.4 23.47 127.6 20.54 125.48 17.95C124.85 17.19 124.17 16.49 123.51 15.82C123.2 15.5 122.87 15.17 122.56 14.84C120.65 12.8 119.79 10.34 120.15 7.91C120.51 5.48 122.04 3.37999 124.47 1.96999C124.83 1.75999 125.26 1.62 125.67 1.62C126.13 1.62 126.57 1.79999 126.89 2.26999C127.4 3.01999 127.18 3.94 126.32 4.62C126.2 4.71 126.08 4.79 125.96 4.87C125.74 5.01 125.53 5.15999 125.33 5.31999C123.77 6.61999 123.38 7.94999 123.33 8.84999C123.28 9.74999 123.52 11.13 124.94 12.6C125.21 12.89 125.49 13.17 125.77 13.45C127.68 15.39 129.48 17.21 129.96 19.82" fill="#395886"/>
<path d="M108.08 19.1499C108.33 20.5499 108.28 21.9499 107.92 23.2099C107.17 25.8599 105.48 27.8599 102.76 29.3099C101.8 29.8199 100.98 29.3899 100.59 28.7399C99.9999 27.7399 100.59 26.9899 101.21 26.5299C101.39 26.3899 101.59 26.2599 101.78 26.1199C102.19 25.8499 102.66 25.5299 103.08 25.1299C105.51 22.7899 105.71 19.8599 103.59 17.2699C102.96 16.5099 102.28 15.8099 101.62 15.1399C101.31 14.8199 100.98 14.4899 100.67 14.1599C98.7599 12.1199 97.8999 9.65994 98.2599 7.22994C98.6199 4.79994 100.15 2.69994 102.58 1.28994C102.94 1.07994 103.37 0.939941 103.78 0.939941C104.24 0.939941 104.68 1.11994 105 1.58994C105.51 2.33994 105.29 3.25994 104.43 3.93994C104.31 4.02994 104.19 4.10994 104.07 4.18994C103.85 4.32994 103.64 4.47994 103.44 4.63994C101.88 5.93994 101.49 7.26994 101.44 8.16994C101.39 9.06994 101.63 10.4499 103.05 11.9199C103.32 12.2099 103.6 12.4899 103.88 12.7699C105.79 14.7099 107.59 16.5299 108.07 19.1399" fill="#395886"/>
<path d="M87.5699 19.1499C87.8199 20.5499 87.7699 21.9499 87.4099 23.2099C86.6599 25.8599 84.9699 27.8599 82.2499 29.3099C81.2899 29.8199 80.4699 29.3899 80.0799 28.7399C79.4899 27.7399 80.0799 26.9899 80.6999 26.5299C80.8799 26.3899 81.0799 26.2599 81.2699 26.1199C81.6799 25.8499 82.1499 25.5299 82.5699 25.1299C84.9999 22.7899 85.1999 19.8599 83.0799 17.2699C82.4499 16.5099 81.7699 15.8099 81.1099 15.1399C80.7999 14.8199 80.4699 14.4899 80.1599 14.1599C78.2499 12.1199 77.3899 9.65994 77.7499 7.22994C78.1099 4.79994 79.6399 2.69994 82.0699 1.28994C82.4299 1.07994 82.8599 0.939941 83.2699 0.939941C83.7299 0.939941 84.1699 1.11994 84.4899 1.58994C84.9999 2.33994 84.7799 3.25994 83.9199 3.93994C83.7999 4.02994 83.6799 4.10994 83.5599 4.18994C83.3399 4.32994 83.1299 4.47994 82.9299 4.63994C81.3699 5.93994 80.9799 7.26994 80.9299 8.16994C80.8799 9.06994 81.1199 10.4499 82.5399 11.9199C82.8099 12.2099 83.0899 12.4899 83.3699 12.7699C85.2799 14.7099 87.0799 16.5299 87.5599 19.1399" fill="#395886"/>
<path d="M202.22 60.2199C201.78 54.9199 197.45 50.7999 192.16 50.6299L174.51 50.5699C173.14 50.5599 171.94 49.7299 171.43 48.4399C169.78 44.2299 167.66 42.5799 163.91 42.5299C154.4 42.4099 144.19 42.3999 132.71 42.5299C129.11 42.5699 126.29 44.6599 125.37 47.9899C124.75 50.1699 123.5 50.6199 121.77 50.5999C108.87 50.5699 95.75 50.5699 83.07 50.5699H72.48C66.91 50.5699 40.38 50.5699 36.89 50.5699H33.7L33.64 49.6099C33.63 49.3299 33.61 49.0799 33.59 48.8599C33.56 48.4799 33.52 48.1299 33.52 47.7699V43.1899C33.51 37.3199 33.5 31.2599 33.52 25.2899C33.54 19.6799 37.47 15.5699 42.88 15.5199C48.22 15.4399 52.26 19.4699 52.47 25.0499C52.48 25.4199 52.48 25.7899 52.48 26.1499C52.48 26.9099 52.48 27.6199 52.6 28.2899C52.78 29.3599 53.41 29.8699 54.49 29.8599C55.11 29.8499 55.64 29.6499 55.95 29.3199C56.18 29.0699 56.29 28.7699 56.28 28.3699L56.25 27.2799C56.2 24.8899 56.14 22.3999 55.44 20.2599C53.47 14.2099 47.23 10.6299 40.61 11.7499C34.44 12.7999 29.72 18.2999 29.64 24.5499C29.57 29.7999 29.58 35.1399 29.59 40.3099C29.59 42.6099 29.59 44.9099 29.59 47.2099V50.5699H27.62C27.09 50.5699 26.64 50.5699 26.18 50.5699C24.57 50.5699 22.97 50.5699 21.37 50.5699C20.14 50.5699 18.89 50.5599 17.64 50.5599C15.33 50.5599 13 50.5799 10.7 50.6499C5.40999 50.8099 1.07999 54.9399 0.639992 60.2399C0.189992 65.5499 3.65999 70.2699 8.88999 71.4799C9.60999 71.6499 10.38 71.7299 11.19 71.8199C11.59 71.8599 11.99 71.8999 12.41 71.9599L13.31 72.0799V91.9399C13.31 104.74 13.3 117.52 13.31 130.32C13.32 137.29 17.54 142.64 24.32 144.27C24.69 144.36 25.02 144.49 25.36 144.62C25.49 144.67 25.62 144.72 25.76 144.77L26.44 145.02V145.74C26.44 146.65 26.44 147.55 26.43 148.44C26.43 150.46 26.41 152.38 26.46 154.32C26.55 157.76 28.99 160.82 32.27 161.6C33.5 161.89 34.84 161.93 35.98 161.93C79.61 161.94 123.24 161.94 166.87 161.94H167.2C167.68 161.94 168.14 161.94 168.58 161.91C173.38 161.55 176.39 158.35 176.43 153.55C176.44 151.79 176.43 150.03 176.43 148.3V145.04L177.05 144.78C177.19 144.72 177.3 144.67 177.39 144.63C177.6 144.53 177.75 144.47 177.9 144.42C185.96 142.24 189.55 137.59 189.55 129.33V72.0799L190.44 71.9599C190.86 71.9099 191.26 71.8599 191.66 71.8199C192.47 71.7299 193.25 71.6499 193.96 71.4799C199.2 70.2799 202.67 65.5499 202.22 60.2399V60.2199ZM134.26 46.4299C138.96 46.4299 143.68 46.4299 148.39 46.4299C153.1 46.4299 157.8 46.4299 162.51 46.4299C166.49 46.4299 167.76 47.7199 167.76 51.6899C167.76 61.1899 167.76 70.6899 167.76 80.1999V97.6299H128.94L128.86 95.9699C128.83 95.4399 128.8 94.9599 128.8 94.4899C128.8 80.2999 128.8 66.1099 128.8 51.9199C128.8 47.7099 130.08 46.4399 134.27 46.4399L134.26 46.4299ZM11.86 67.8199C11.44 67.8199 11.01 67.8199 10.58 67.7699C7.42999 67.4799 4.89999 64.9899 4.55999 61.8399C4.21999 58.7599 6.15999 55.7699 9.06999 54.8799C10.16 54.5399 11.32 54.5199 12.51 54.5199C24.53 54.4999 36.55 54.5199 48.57 54.4999H49.6H73.49C89.42 54.5099 105.37 54.5099 121.3 54.5099H124.75V67.8199H11.86ZM172.51 153.41C172.51 155.95 170.45 158.01 167.91 158.01H34.86C32.32 158.01 30.26 155.95 30.26 153.41V144.33H172.51V153.41ZM185.62 99.3099C185.62 109.42 185.62 119.53 185.62 129.63C185.62 136.63 181.62 140.64 174.64 140.64H28.15C21.31 140.64 17.22 136.58 17.21 129.79C17.21 117.59 17.21 105.38 17.21 93.1799V71.9199H124.85V80.9599C124.85 86.7799 124.85 92.5999 124.85 98.4199C124.85 101.06 125.35 101.56 127.95 101.57C130.73 101.57 133.5 101.58 136.28 101.57H137.31H164.67C166.06 101.57 167.45 101.57 168.84 101.57C171.14 101.56 171.66 101.04 171.67 98.7899C171.68 92.9199 171.67 87.0499 171.67 81.1799V71.9399L185.59 71.9199V99.3199L185.62 99.3099ZM198.28 61.8399C198.11 63.4099 197.38 64.8199 196.32 65.8699C195.25 66.9199 193.83 67.6199 192.26 67.7599C191.83 67.7999 191.4 67.8099 190.98 67.8099H171.8V54.5099H173.2C178.38 54.5099 185.52 54.5099 190.34 54.5099C191.53 54.5099 192.69 54.5399 193.78 54.8699C196.69 55.7499 198.64 58.7499 198.29 61.8299L198.28 61.8399Z" fill="#395886"/>
</svg>
