<svg width="179" height="221" viewBox="0 0 179 221" fill="none" xmlns="http://www.w3.org/2000/svg">
<path d="M178.77 57.15C178.07 46.97 174.04 37.94 166.45 29.54C157.69 19.85 146.28 12.64 131.57 7.47996C110.49 0.109963 88.04 -1.46004 64.86 2.81996C46.31 6.23996 31.34 12.94 19.08 23.3C7.24001 33.3 1.09001 44.47 0.260009 57.45C0.140009 59.37 0.330007 60.56 0.820007 61.1C1.31001 61.62 2.45001 61.87 4.30001 61.87H79.2V198.08H84.3C84.35 173.33 84.34 110.7 84.34 86.44V62.15H94.51V192.44H100.04V61.88H126.12C142.27 61.88 158.41 61.88 174.56 61.88C176.53 61.88 177.73 61.62 178.23 61.08C178.74 60.53 178.93 59.25 178.78 57.16L178.77 57.15ZM49.53 56.55H5.52L5.82001 54.41C6.84001 47.27 9.79 40.83 14.84 34.71C23.28 24.51 34.53 17.27 50.26 11.95C53.37 10.9 56.58 10.04 59.68 9.20996C61.09 8.82996 62.5 8.45996 63.91 8.05996L69.73 6.41996L65.86 11.08C56.15 22.75 51 36.64 49.64 54.81L49.52 56.55H49.53ZM54.75 56.63L54.91 54.59C56.39 36.45 61.22 24.04 70.59 14.36C76.36 8.39996 83.16 5.35996 90.3 5.57996C97.47 5.79996 104.45 9.45996 109.96 15.9C117.47 24.67 121.82 35.35 123.67 49.51C123.81 50.63 123.91 51.73 124 52.89C124.05 53.44 124.09 53.99 124.14 54.56L124.33 56.62H54.75V56.63ZM129.54 56.6L129.41 54.87C127.99 36.45 122.65 22.58 112.59 11.2L108.87 6.99996L114.36 8.10996C128.63 10.99 140.48 15.69 150.57 22.49C159.85 28.74 165.94 35.38 169.73 43.39C170.84 45.72 171.62 48.11 172.45 50.64C172.82 51.77 173.19 52.93 173.62 54.09L174.5 56.6H129.53H129.54Z" fill="#395886"/>
<path d="M178.72 202.31C171.75 202.31 168.13 199.56 164.93 197.13C161.95 194.86 159.38 192.91 153.99 192.91C148.6 192.91 146.03 194.87 143.05 197.13C139.86 199.56 136.24 202.31 129.26 202.31C122.28 202.31 118.67 199.56 115.48 197.13C112.5 194.86 109.93 192.91 104.54 192.91C99.1501 192.91 96.5802 194.87 93.6002 197.13C90.4102 199.56 86.7902 202.31 79.8202 202.31C72.8502 202.31 69.2301 199.56 66.0401 197.13C63.0601 194.86 60.4902 192.91 55.1002 192.91C49.7102 192.91 47.1402 194.87 44.1602 197.13C40.9702 199.56 37.3501 202.31 30.3801 202.31C23.4102 202.31 19.7902 199.56 16.6002 197.13C13.6202 194.86 11.0502 192.91 5.66016 192.91V188.21C12.6302 188.21 16.2502 190.96 19.4402 193.39C22.4202 195.66 24.9902 197.61 30.3801 197.61C35.7701 197.61 38.3402 195.65 41.3202 193.39C44.5102 190.96 48.1301 188.21 55.1002 188.21C62.0702 188.21 65.6902 190.96 68.8802 193.39C71.8602 195.66 74.4302 197.61 79.8202 197.61C85.2102 197.61 87.7801 195.65 90.7601 193.39C93.9501 190.96 97.5701 188.21 104.54 188.21C111.51 188.21 115.13 190.96 118.33 193.39C121.31 195.66 123.88 197.61 129.27 197.61C134.66 197.61 137.23 195.65 140.21 193.39C143.4 190.96 147.02 188.21 154 188.21C160.98 188.21 164.59 190.96 167.79 193.39C170.77 195.66 173.34 197.61 178.73 197.61V202.31H178.72Z" fill="#395886"/>
<path d="M178.72 220.18C171.75 220.18 168.13 217.43 164.93 215C161.95 212.73 159.38 210.78 153.99 210.78C148.6 210.78 146.03 212.74 143.05 215C139.86 217.43 136.24 220.18 129.26 220.18C122.28 220.18 118.67 217.43 115.48 215C112.5 212.73 109.93 210.78 104.54 210.78C99.1501 210.78 96.5802 212.74 93.6002 215C90.4102 217.43 86.7902 220.18 79.8202 220.18C72.8502 220.18 69.2301 217.43 66.0401 215C63.0601 212.73 60.4902 210.78 55.1002 210.78C49.7102 210.78 47.1402 212.74 44.1602 215C40.9702 217.43 37.3501 220.18 30.3801 220.18C23.4102 220.18 19.7902 217.43 16.6002 215C13.6202 212.73 11.0502 210.78 5.66016 210.78V206.08C12.6302 206.08 16.2502 208.83 19.4402 211.26C22.4202 213.53 24.9902 215.48 30.3801 215.48C35.7701 215.48 38.3402 213.52 41.3202 211.26C44.5102 208.83 48.1301 206.08 55.1002 206.08C62.0702 206.08 65.6902 208.83 68.8802 211.26C71.8602 213.53 74.4302 215.48 79.8202 215.48C85.2102 215.48 87.7801 213.52 90.7601 211.26C93.9501 208.83 97.5701 206.08 104.54 206.08C111.51 206.08 115.13 208.83 118.33 211.26C121.31 213.53 123.88 215.48 129.27 215.48C134.66 215.48 137.23 213.52 140.21 211.26C143.4 208.83 147.02 206.08 154 206.08C160.98 206.08 164.59 208.83 167.79 211.26C170.77 213.53 173.34 215.48 178.73 215.48V220.18H178.72Z" fill="#395886"/>
<path d="M3.78002 73.9299C3.78002 72.8916 2.93832 72.0499 1.90002 72.0499C0.861729 72.0499 0.0200195 72.8916 0.0200195 73.9299V83.3399C0.0200195 84.3782 0.861729 85.2199 1.90002 85.2199C2.93832 85.2199 3.78002 84.3782 3.78002 83.3399V73.9299Z" fill="#395886"/>
<path d="M3.78002 90.86C3.78002 89.8217 2.93832 88.98 1.90002 88.98C0.861729 88.98 0.0200195 89.8217 0.0200195 90.86V100.27C0.0200195 101.308 0.861729 102.15 1.90002 102.15C2.93832 102.15 3.78002 101.308 3.78002 100.27V90.86Z" fill="#395886"/>
<path d="M3.78002 107.79C3.78002 106.752 2.93832 105.91 1.90002 105.91C0.861729 105.91 0.0200195 106.752 0.0200195 107.79V117.2C0.0200195 118.238 0.861729 119.08 1.90002 119.08C2.93832 119.08 3.78002 118.238 3.78002 117.2V107.79Z" fill="#395886"/>
<path d="M3.78002 124.72C3.78002 123.682 2.93832 122.84 1.90002 122.84C0.861729 122.84 0.0200195 123.682 0.0200195 124.72V134.13C0.0200195 135.168 0.861729 136.01 1.90002 136.01C2.93832 136.01 3.78002 135.168 3.78002 134.13V124.72Z" fill="#395886"/>
<path d="M3.78002 141.65C3.78002 140.612 2.93832 139.77 1.90002 139.77C0.861729 139.77 0.0200195 140.612 0.0200195 141.65V151.06C0.0200195 152.098 0.861729 152.94 1.90002 152.94C2.93832 152.94 3.78002 152.098 3.78002 151.06V141.65Z" fill="#395886"/>
<path d="M3.78002 158.58C3.78002 157.542 2.93832 156.7 1.90002 156.7C0.861729 156.7 0.0200195 157.542 0.0200195 158.58V167.99C0.0200195 169.028 0.861729 169.87 1.90002 169.87C2.93832 169.87 3.78002 169.028 3.78002 167.99V158.58Z" fill="#395886"/>
<path d="M32.0002 78.63C32.0002 77.5917 31.1585 76.75 30.1202 76.75C29.0819 76.75 28.2402 77.5917 28.2402 78.63V88.04C28.2402 89.0783 29.0819 89.92 30.1202 89.92C31.1585 89.92 32.0002 89.0783 32.0002 88.04V78.63Z" fill="#395886"/>
<path d="M32.0002 95.5599C32.0002 94.5216 31.1585 93.6799 30.1202 93.6799C29.0819 93.6799 28.2402 94.5216 28.2402 95.5599V104.97C28.2402 106.008 29.0819 106.85 30.1202 106.85C31.1585 106.85 32.0002 106.008 32.0002 104.97V95.5599Z" fill="#395886"/>
<path d="M32.0002 112.49C32.0002 111.452 31.1585 110.61 30.1202 110.61C29.0819 110.61 28.2402 111.452 28.2402 112.49V121.9C28.2402 122.938 29.0819 123.78 30.1202 123.78C31.1585 123.78 32.0002 122.938 32.0002 121.9V112.49Z" fill="#395886"/>
<path d="M32.0002 129.42C32.0002 128.382 31.1585 127.54 30.1202 127.54C29.0819 127.54 28.2402 128.382 28.2402 129.42V138.83C28.2402 139.868 29.0819 140.71 30.1202 140.71C31.1585 140.71 32.0002 139.868 32.0002 138.83V129.42Z" fill="#395886"/>
<path d="M17.8899 70.1699C17.8899 69.1316 17.0482 68.2899 16.0099 68.2899C14.9716 68.2899 14.1299 69.1316 14.1299 70.1699V79.5799C14.1299 80.6182 14.9716 81.4599 16.0099 81.4599C17.0482 81.4599 17.8899 80.6182 17.8899 79.5799V70.1699Z" fill="#395886"/>
<path d="M17.8899 87.1C17.8899 86.0617 17.0482 85.22 16.0099 85.22C14.9716 85.22 14.1299 86.0617 14.1299 87.1V96.51C14.1299 97.5483 14.9716 98.39 16.0099 98.39C17.0482 98.39 17.8899 97.5483 17.8899 96.51V87.1Z" fill="#395886"/>
<path d="M17.8899 104.03C17.8899 102.992 17.0482 102.15 16.0099 102.15C14.9716 102.15 14.1299 102.992 14.1299 104.03V113.44C14.1299 114.478 14.9716 115.32 16.0099 115.32C17.0482 115.32 17.8899 114.478 17.8899 113.44V104.03Z" fill="#395886"/>
<path d="M17.8899 120.95C17.8899 119.912 17.0482 119.07 16.0099 119.07C14.9716 119.07 14.1299 119.912 14.1299 120.95V130.36C14.1299 131.398 14.9716 132.24 16.0099 132.24C17.0482 132.24 17.8899 131.398 17.8899 130.36V120.95Z" fill="#395886"/>
<path d="M17.8899 137.88C17.8899 136.842 17.0482 136 16.0099 136C14.9716 136 14.1299 136.842 14.1299 137.88V147.29C14.1299 148.328 14.9716 149.17 16.0099 149.17C17.0482 149.17 17.8899 148.328 17.8899 147.29V137.88Z" fill="#395886"/>
<path d="M174.97 83.33C174.97 84.3683 175.812 85.21 176.85 85.21C177.888 85.21 178.73 84.3683 178.73 83.33V73.92C178.73 72.8817 177.888 72.04 176.85 72.04C175.812 72.04 174.97 72.8817 174.97 73.92V83.33Z" fill="#395886"/>
<path d="M174.97 100.26C174.97 101.298 175.812 102.14 176.85 102.14C177.888 102.14 178.73 101.298 178.73 100.26V90.8499C178.73 89.8116 177.888 88.9699 176.85 88.9699C175.812 88.9699 174.97 89.8116 174.97 90.8499V100.26Z" fill="#395886"/>
<path d="M174.97 117.19C174.97 118.228 175.812 119.07 176.85 119.07C177.888 119.07 178.73 118.228 178.73 117.19V107.78C178.73 106.742 177.888 105.9 176.85 105.9C175.812 105.9 174.97 106.742 174.97 107.78V117.19Z" fill="#395886"/>
<path d="M174.97 134.12C174.97 135.158 175.812 136 176.85 136C177.888 136 178.73 135.158 178.73 134.12V124.71C178.73 123.672 177.888 122.83 176.85 122.83C175.812 122.83 174.97 123.672 174.97 124.71V134.12Z" fill="#395886"/>
<path d="M174.97 151.05C174.97 152.088 175.812 152.93 176.85 152.93C177.888 152.93 178.73 152.088 178.73 151.05V141.64C178.73 140.602 177.888 139.76 176.85 139.76C175.812 139.76 174.97 140.602 174.97 141.64V151.05Z" fill="#395886"/>
<path d="M174.97 167.98C174.97 169.018 175.812 169.86 176.85 169.86C177.888 169.86 178.73 169.018 178.73 167.98V158.57C178.73 157.532 177.888 156.69 176.85 156.69C175.812 156.69 174.97 157.532 174.97 158.57V167.98Z" fill="#395886"/>
<path d="M146.75 88.0399C146.75 89.0782 147.591 89.9199 148.63 89.9199C149.668 89.9199 150.51 89.0782 150.51 88.0399V78.6299C150.51 77.5916 149.668 76.7499 148.63 76.7499C147.591 76.7499 146.75 77.5916 146.75 78.6299V88.0399Z" fill="#395886"/>
<path d="M146.75 104.97C146.75 106.008 147.591 106.85 148.63 106.85C149.668 106.85 150.51 106.008 150.51 104.97V95.5598C150.51 94.5215 149.668 93.6798 148.63 93.6798C147.591 93.6798 146.75 94.5215 146.75 95.5598V104.97Z" fill="#395886"/>
<path d="M146.75 121.9C146.75 122.938 147.591 123.78 148.63 123.78C149.668 123.78 150.51 122.938 150.51 121.9V112.49C150.51 111.452 149.668 110.61 148.63 110.61C147.591 110.61 146.75 111.452 146.75 112.49V121.9Z" fill="#395886"/>
<path d="M146.75 138.83C146.75 139.868 147.591 140.71 148.63 140.71C149.668 140.71 150.51 139.868 150.51 138.83V129.42C150.51 128.382 149.668 127.54 148.63 127.54C147.591 127.54 146.75 128.382 146.75 129.42V138.83Z" fill="#395886"/>
<path d="M160.86 79.57C160.86 80.6082 161.702 81.45 162.74 81.45C163.778 81.45 164.62 80.6082 164.62 79.57V70.16C164.62 69.1217 163.778 68.2799 162.74 68.2799C161.702 68.2799 160.86 69.1217 160.86 70.16V79.57Z" fill="#395886"/>
<path d="M160.86 96.4999C160.86 97.5382 161.702 98.3799 162.74 98.3799C163.778 98.3799 164.62 97.5382 164.62 96.4999V87.0899C164.62 86.0516 163.778 85.2099 162.74 85.2099C161.702 85.2099 160.86 86.0516 160.86 87.0899V96.4999Z" fill="#395886"/>
<path d="M160.86 113.43C160.86 114.468 161.702 115.31 162.74 115.31C163.778 115.31 164.62 114.468 164.62 113.43V104.02C164.62 102.982 163.778 102.14 162.74 102.14C161.702 102.14 160.86 102.982 160.86 104.02V113.43Z" fill="#395886"/>
<path d="M160.86 130.37C160.86 131.408 161.702 132.25 162.74 132.25C163.778 132.25 164.62 131.408 164.62 130.37V120.96C164.62 119.922 163.778 119.08 162.74 119.08C161.702 119.08 160.86 119.922 160.86 120.96V130.37Z" fill="#395886"/>
<path d="M160.86 147.3C160.86 148.338 161.702 149.18 162.74 149.18C163.778 149.18 164.62 148.338 164.62 147.3V137.89C164.62 136.852 163.778 136.01 162.74 136.01C161.702 136.01 160.86 136.852 160.86 137.89V147.3Z" fill="#395886"/>
</svg>
