<svg width="134" height="187" viewBox="0 0 134 187" fill="none" xmlns="http://www.w3.org/2000/svg">
<path d="M67.4801 159.68C30.9601 159.68 1.27013 130.12 0.960134 94.09C0.630134 56.17 31.5801 26.56 67.6701 26.7C103.38 26.84 134.12 56.09 133.89 93.8C133.67 130.06 104.01 159.68 67.4801 159.68ZM67.6201 153.14C100.33 153.17 127.29 126.22 127.34 93.46C127.39 60.43 100.64 33.33 67.9301 33.27C34.2501 33.21 7.61013 59.95 7.56013 93.85C7.51013 126.36 34.6201 153.12 67.6301 153.14H67.6201Z" fill="#395886"/>
<path d="M70.8099 10.25C70.8099 12.17 70.8199 14.09 70.8099 16C70.7899 18.32 69.4799 19.89 67.5399 19.96C65.6299 20.02 64.2599 18.77 64.1899 16.36C64.0599 12.08 64.0999 7.79998 64.2199 3.51998C64.2799 1.35998 65.7599 0.00998982 67.5599 0.0799898C69.2799 0.14999 70.7499 1.72999 70.8099 3.72999C70.8699 5.89999 70.8199 8.07999 70.8199 10.25H70.8099Z" fill="#395886"/>
<path d="M41.6397 14.27C42.3897 16.04 43.1497 17.8 43.8797 19.57C44.7697 21.71 44.1797 23.67 42.4197 24.49C40.6797 25.29 38.9397 24.67 37.9297 22.48C36.1397 18.59 34.4997 14.63 32.9397 10.65C32.1497 8.64001 32.9897 6.82001 34.6697 6.18001C36.2797 5.57001 38.2597 6.46 39.0897 8.27C39.9997 10.24 40.7997 12.27 41.6497 14.27H41.6397Z" fill="#395886"/>
<path d="M17.2299 27.46C18.4299 28.96 19.6299 30.45 20.8199 31.96C22.2599 33.79 22.2099 35.83 20.7399 37.09C19.2799 38.33 17.4399 38.21 15.8699 36.37C13.0999 33.11 10.4499 29.74 7.8799 26.32C6.5799 24.6 6.8899 22.62 8.3399 21.55C9.7199 20.53 11.8699 20.85 13.1599 22.37C14.5699 24.03 15.8799 25.76 17.2399 27.45H17.2299V27.46Z" fill="#395886"/>
<path d="M123.26 31.9899C122.1 33.5199 120.95 35.0499 119.78 36.5699C118.36 38.4099 116.37 38.8699 114.79 37.7499C113.23 36.6399 112.9 34.8199 114.3 32.8499C116.78 29.3599 119.4 25.9699 122.08 22.6399C123.43 20.9599 125.43 20.7699 126.82 21.9199C128.15 23.0099 128.37 25.1699 127.21 26.7999C125.95 28.5699 124.6 30.2699 123.28 31.9999H123.27L123.26 31.9899Z" fill="#395886"/>
<path d="M98.67 16.3899C97.97 18.1699 97.2699 19.9599 96.5599 21.7399C95.6899 23.8899 93.9 24.8699 92.07 24.2199C90.27 23.5799 89.46 21.9099 90.27 19.6399C91.72 15.6099 93.3299 11.6399 95.0099 7.70993C95.8599 5.71993 97.73 5.00993 99.38 5.73993C100.95 6.42993 101.74 8.44993 101.07 10.3299C100.33 12.3699 99.49 14.3799 98.69 16.3999H98.6799L98.67 16.3899Z" fill="#395886"/>
<path d="M70.8099 176.59C70.8099 174.67 70.8199 172.75 70.8099 170.84C70.7899 168.52 69.4799 166.95 67.5399 166.88C65.6299 166.82 64.2599 168.07 64.1899 170.48C64.0599 174.76 64.0999 179.04 64.2199 183.32C64.2799 185.48 65.7599 186.83 67.5599 186.76C69.2799 186.69 70.7499 185.11 70.8099 183.11C70.8699 180.94 70.8199 178.76 70.8199 176.59H70.8099Z" fill="#395886"/>
<path d="M41.6397 172.57C42.3897 170.8 43.1497 169.04 43.8797 167.27C44.7697 165.13 44.1797 163.17 42.4197 162.35C40.6797 161.55 38.9397 162.17 37.9297 164.36C36.1397 168.25 34.4997 172.21 32.9397 176.19C32.1497 178.2 32.9897 180.02 34.6697 180.66C36.2797 181.27 38.2597 180.38 39.0897 178.57C39.9997 176.6 40.7997 174.57 41.6497 172.57H41.6397Z" fill="#395886"/>
<path d="M17.2299 159.39C18.4299 157.89 19.6299 156.4 20.8199 154.89C22.2599 153.06 22.2099 151.02 20.7399 149.76C19.2799 148.52 17.4399 148.64 15.8699 150.48C13.0999 153.74 10.4499 157.11 7.8799 160.53C6.5799 162.25 6.8899 164.23 8.3399 165.3C9.7199 166.32 11.8699 166 13.1599 164.48C14.5699 162.82 15.8799 161.09 17.2399 159.4H17.2299V159.39Z" fill="#395886"/>
<path d="M123.26 154.85C122.1 153.32 120.95 151.79 119.78 150.27C118.36 148.43 116.37 147.97 114.79 149.09C113.23 150.2 112.9 152.02 114.3 153.99C116.78 157.48 119.4 160.87 122.08 164.2C123.43 165.88 125.43 166.07 126.82 164.92C128.15 163.83 128.37 161.67 127.21 160.04C125.95 158.27 124.6 156.57 123.28 154.84H123.27L123.26 154.85Z" fill="#395886"/>
<path d="M98.67 170.46C97.97 168.68 97.2699 166.89 96.5599 165.11C95.6899 162.96 93.9 161.98 92.07 162.63C90.27 163.27 89.46 164.94 90.27 167.21C91.72 171.24 93.3299 175.21 95.0099 179.14C95.8599 181.13 97.73 181.84 99.38 181.11C100.95 180.42 101.74 178.4 101.07 176.52C100.33 174.48 99.49 172.47 98.69 170.45H98.6799L98.67 170.46Z" fill="#395886"/>
<path d="M67.4699 133.07C46.4499 133.33 27.2299 116.01 27.5699 92.5499C27.8899 70.1699 46.9099 52.6699 68.6399 53.2999C88.2499 53.8699 107.43 70.0299 107.3 93.7999C107.18 115.34 89.2999 133.07 67.4799 133.07H67.4699ZM34.1699 91.9299C33.4399 108.7 45.9599 125.5 65.9399 126.45C84.3599 127.32 99.9199 113.39 100.7 94.3199C101.41 77.0399 88.1099 61.0099 69.2999 59.9799C49.9599 58.9199 34.8199 74.0299 34.1599 91.9299H34.1699Z" fill="#395886"/>
<path d="M20.9 93.06C20.95 94.81 19.27 96.51 17.5 96.51C15.88 96.51 14.33 95.03 14.23 93.38C14.13 91.77 15.75 90 17.4 89.9C18.98 89.81 20.86 91.51 20.91 93.07L20.9 93.06Z" fill="#395886"/>
<path d="M117.38 89.89C118.88 89.85 120.58 91.51 120.64 93.08C120.71 94.76 119.1 96.52 117.47 96.54C115.7 96.57 113.94 94.88 113.95 93.17C113.96 91.61 115.72 89.93 117.38 89.89Z" fill="#395886"/>
<path d="M70.7698 43.34C70.7598 45.01 69.0998 46.61 67.3998 46.6C65.7198 46.59 64.0998 44.93 64.1198 43.26C64.1498 41.6 65.8298 39.93 67.4698 39.96C69.0698 39.98 70.7798 41.73 70.7698 43.34Z" fill="#395886"/>
<path d="M67.3499 146.39C65.5399 146.33 64.0799 144.75 64.1899 142.97C64.2999 141.27 65.8099 139.78 67.4399 139.77C69.0299 139.77 70.7899 141.55 70.7599 143.16C70.7299 144.86 69.0599 146.44 67.3499 146.39Z" fill="#395886"/>
<path d="M24.17 71.58C22.55 71.58 21.03 70.04 21.01 68.39C20.99 66.43 22.43 64.91 24.29 64.93C25.97 64.95 27.48 66.57 27.46 68.32C27.43 70.09 25.93 71.59 24.17 71.58Z" fill="#395886"/>
<path d="M92.3799 53.2301C90.4599 53.2 89.0199 51.79 89.0999 50.02C89.1899 48.1 90.5699 46.73 92.3799 46.74C94.1899 46.75 95.6898 48.25 95.6798 50.02C95.6698 51.84 94.2099 53.2501 92.3799 53.2301Z" fill="#395886"/>
<path d="M92.3198 139.66C90.4998 139.66 89.0798 138.23 89.0598 136.4C89.0398 134.64 90.5098 133.23 92.3898 133.2C94.1598 133.17 95.4998 134.49 95.5298 136.29C95.5698 138.46 94.4098 139.67 92.3198 139.66Z" fill="#395886"/>
<path d="M42.4698 139.64C40.5798 139.64 39.1598 138.21 39.2098 136.37C39.2598 134.51 40.7198 133.15 42.5898 133.2C44.3698 133.25 45.7298 134.61 45.7698 136.39C45.8098 138.16 44.2998 139.65 42.4698 139.64Z" fill="#395886"/>
<path d="M110.57 114.88C112.36 114.88 113.87 116.41 113.84 118.19C113.8 120.11 112.4 121.53 110.6 121.5C108.81 121.47 107.37 119.94 107.41 118.11C107.45 116.38 108.92 114.88 110.58 114.88H110.57Z" fill="#395886"/>
<path d="M113.87 68.27C113.86 70.05 112.28 71.61 110.57 71.55C108.81 71.49 107.34 69.9 107.4 68.13C107.46 66.42 108.96 64.93 110.59 64.96C112.4 65 113.89 66.49 113.87 68.27Z" fill="#395886"/>
<path d="M42.4599 53.23C40.7799 53.21 39.2099 51.74 39.1799 50.17C39.1399 48.32 40.7699 46.64 42.5099 46.71C44.3299 46.79 45.7399 48.24 45.7599 50.05C45.7799 51.84 44.3199 53.25 42.4599 53.23Z" fill="#395886"/>
<path d="M27.45 118.27C27.42 120.04 26.05 121.37 24.27 121.36C22.39 121.35 20.98 119.97 20.98 118.15C20.98 116.29 22.35 114.96 24.28 114.95C26.11 114.95 27.48 116.38 27.46 118.26L27.45 118.27Z" fill="#395886"/>
</svg>
