<svg width="392" height="58" viewBox="0 0 392 58" fill="none" xmlns="http://www.w3.org/2000/svg">
<path d="M49.5418 37.7272V53.1335L15.8805 27.6551V57.8484H-0.00341797V0.731201H5.64993L49.5418 37.7272Z" fill="#385785"/>
<path d="M82.4265 0.7771V57.8599H76.7186L32.8677 20.8983V5.49194L66.5426 30.9704V0.7771H82.4265Z" fill="#385785"/>
<path d="M138.02 32.095V50.7134L117.776 32.095H102.465V57.8143H110.597V38.9435L127.884 57.8143H146.152V32.095H138.02Z" fill="#385785"/>
<path d="M180.127 32.2437H168.085L151.547 57.6189H161.982L164.788 53.3055H180.741L177.13 47.8336H168.194L174.025 38.7022L178.97 46.4455L179.855 47.8336L183.315 53.3055L184.037 54.4412L186.067 57.6303H196.488L180.127 32.2551V32.2437Z" fill="#385785"/>
<path d="M375.107 32.2437H363.064L346.526 57.6189H356.961L359.768 53.3055H375.72L372.11 47.8336H363.173L369.004 38.7022L373.949 46.4455L374.834 47.8336L378.294 53.3055L379.016 54.4412L381.046 57.6303H391.467L375.107 32.2551V32.2437Z" fill="#385785"/>
<path d="M231.497 32.2437V49.1528C231.497 49.6576 231.238 50.0706 230.748 50.3688C230.257 50.6785 229.44 50.8391 228.323 50.8391H214.973C213.924 50.8391 213.147 50.6785 212.657 50.3688C212.167 50.0591 211.921 49.6461 211.921 49.1528V32.2437H202.672V50.2656C202.672 51.4127 202.821 52.3763 203.108 53.1679C203.394 53.9594 203.966 54.7051 204.783 55.3934C205.614 56.0358 206.336 56.5061 206.935 56.8044C207.535 57.1026 208.339 57.3321 209.36 57.4812C210.368 57.6303 211.772 57.7336 213.556 57.768C215.341 57.8139 218.079 57.8368 221.73 57.8368C225.38 57.8368 228.132 57.8139 229.917 57.768C231.688 57.7336 233.077 57.6303 234.099 57.4812C235.107 57.3321 235.897 57.1141 236.483 56.8159C237.055 56.5291 237.777 56.0587 238.662 55.3934C239.48 54.7051 240.038 53.9594 240.338 53.1679C240.638 52.3763 240.774 51.4012 240.774 50.2656V32.2437H231.524H231.497Z" fill="#385785"/>
<path d="M247.532 32.2437V38.1286H260.773V57.6303H270.145V38.1286H282.95V32.2437H247.532Z" fill="#385785"/>
<path d="M289.871 32.2437V57.6189H299.271V32.2437H289.871Z" fill="#385785"/>
<path d="M314.705 39.8496C314.705 39.4595 314.923 39.1383 315.358 38.886C315.794 38.6336 316.462 38.4959 317.361 38.4959H342.249V32.2554H316.326C313.002 32.2554 310.55 32.8519 308.956 34.0335C307.348 35.2151 306.558 36.9817 306.558 39.2989V50.6329C306.558 52.9272 307.348 54.6824 308.956 55.864C310.55 57.0455 313.002 57.6306 316.326 57.6306H342.249V51.4933H317.361C316.435 51.4933 315.767 51.3556 315.345 51.0803C314.923 50.7935 314.705 50.4264 314.705 49.9561L314.596 47.9486V41.9374L314.705 39.8381V39.8496Z" fill="#385785"/>
<path d="M218.72 13.981C218.339 13.3271 217.876 12.8338 217.331 12.5355C217.331 12.5355 215.601 11.5719 214.238 11.6981C215.001 11.6637 215.655 11.4342 216.2 11.136C217.562 10.3903 218.162 9.34642 218.339 7.74039C218.339 7.74039 218.747 4.89542 217.549 3.30086C217.004 2.57815 216.35 2.01605 215.546 1.6719C214.701 1.31628 213.802 1.08685 212.89 0.995076C211.95 0.903303 210.846 0.857422 209.607 0.857422H186.639V22.5961H209.607C211.241 22.5961 212.644 22.5273 213.748 22.4011C214.838 22.2749 215.819 22.0111 216.663 21.6096C217.48 21.2195 218.134 20.6345 218.598 19.843C219.061 19.0514 219.292 17.9501 219.292 16.5965C219.292 15.5296 219.102 14.6578 218.72 13.9924V13.981ZM193.886 5.34283H208.558C209.212 5.34283 209.784 5.54931 210.233 5.93934C210.696 6.32938 210.928 6.83413 210.928 7.43065C210.928 8.09601 210.683 8.63517 210.206 9.02521C209.729 9.41524 209.143 9.62174 208.462 9.62174H195.848V13.6368H209.28C210.002 13.6368 210.601 13.8318 211.064 14.2219C211.527 14.6119 211.759 15.1166 211.759 15.7246C211.759 16.4818 211.527 17.0324 211.051 17.388C210.587 17.7436 210.002 17.9157 209.28 17.9157H194.022L193.9 5.35429L193.886 5.34283Z" fill="#385785"/>
<path d="M233.215 17.2274V0.857422H225.573V22.5961H251.047V17.2274H233.228H233.215Z" fill="#385785"/>
<path d="M285.443 5.5149V0.857422H257.094V22.5961H285.443V17.9157H264.737V13.7515H284.19V9.74793H264.737V5.52636H285.443V5.5149Z" fill="#385785"/>
<path d="M131.958 0.891602V16.7339L115.448 0.891602H102.37V22.6647H109.577V6.69624L109.795 6.94861L123.608 22.6647H139.151V0.891602H131.945H131.958Z" fill="#385785"/>
<path d="M174.038 0.444336H151.288C148.427 0.444336 146.043 2.14213 145.471 4.40204C145.39 4.74619 145.335 5.09034 145.335 5.45743V17.6976C145.335 20.4623 148.005 22.7107 151.288 22.7107H174.038C177.321 22.7107 179.991 20.4623 179.991 17.6976V5.45743C179.991 2.69277 177.321 0.444336 174.038 0.444336ZM152.392 6.45545C152.392 6.12278 152.596 5.81306 152.909 5.62951C153.141 5.48038 153.44 5.3886 153.767 5.3886H171C171.749 5.3886 172.362 5.85893 172.362 6.45545V16.1834C172.362 16.7684 171.749 17.2502 171 17.2502H153.767C153.018 17.2502 152.405 16.7684 152.405 16.1834V6.45545H152.392Z" fill="#385785"/>
</svg>
