<svg width="322" height="293" viewBox="0 0 322 293" fill="none" xmlns="http://www.w3.org/2000/svg">
<g clip-path="url(#clip0_128_61)">
<path d="M279.18 168.95C279.18 171.54 279.1 174.11 278.93 176.64C274.27 175.3 269.34 174.61 264.24 174.61C234.61 174.61 210.55 198.64 210.55 228.3C210.55 243.66 217.02 257.52 227.36 267.3C208.18 280.46 184.96 288.18 159.95 288.18C134.94 288.18 112.67 280.79 93.7402 268.11C104.58 258.27 111.39 244.08 111.39 228.3C111.39 198.64 87.3302 174.61 57.7002 174.61C51.8702 174.61 46.2702 175.53 41.0002 177.26C40.8002 174.53 40.7202 171.74 40.7202 168.95C40.7202 122.34 67.4802 81.9499 106.48 62.3799C108.82 89.8099 131.88 111.39 159.95 111.39C188.02 111.39 211.08 89.8099 213.42 62.3799C252.42 81.9499 279.18 122.34 279.18 168.95Z" stroke="#385785" stroke-width="8" stroke-linecap="round" stroke-linejoin="round"/>
<path d="M213.64 57.69C213.64 59.28 213.58 60.84 213.42 62.37C211.08 89.8 188.02 111.38 159.95 111.38C131.88 111.38 108.82 89.8 106.48 62.37C106.31 60.84 106.26 59.28 106.26 57.69C106.26 28.03 130.29 4 159.95 4C189.61 4 213.64 28.03 213.64 57.69Z" stroke="#385785" stroke-width="8" stroke-linecap="round" stroke-linejoin="round"/>
<path d="M111.38 228.3C111.38 244.08 104.58 258.27 93.7302 268.11C84.2002 276.75 71.5702 281.99 57.6802 281.99C28.0202 281.99 3.99023 257.96 3.99023 228.3C3.99023 204.46 19.4902 184.28 40.9802 177.26C46.2502 175.53 51.8502 174.61 57.6802 174.61C87.3102 174.61 111.37 198.64 111.37 228.3H111.38Z" stroke="#385785" stroke-width="8" stroke-linecap="round" stroke-linejoin="round"/>
<path d="M317.93 228.3C317.93 257.96 293.9 281.99 264.24 281.99C249.97 281.99 236.98 276.41 227.36 267.3C217.02 257.52 210.55 243.66 210.55 228.3C210.55 198.64 234.61 174.61 264.24 174.61C269.34 174.61 274.28 175.31 278.93 176.64C301.45 183.02 317.93 203.74 317.93 228.3Z" stroke="#385785" stroke-width="8" stroke-linecap="round" stroke-linejoin="round"/>
</g>
<defs>
<clipPath id="clip0_128_61">
<rect width="321.93" height="292.18" fill="white"/>
</clipPath>
</defs>
</svg>
