<svg width="131" height="118" viewBox="0 0 131 118" fill="none" xmlns="http://www.w3.org/2000/svg">
<path d="M119.727 44.5067H10.7604C4.83461 44.5067 0.012207 40.4533 0.012207 35.4725V9.03418C0.012207 4.05337 4.83461 0 10.7604 0H119.727C125.653 0 130.475 4.05337 130.475 9.03418V35.4725C130.475 40.4533 125.653 44.5067 119.727 44.5067ZM10.7604 3.79006C7.31391 3.79006 4.52118 6.13729 4.52118 9.03418V35.4725C4.52118 38.3694 7.31391 40.7168 10.7604 40.7168H119.727C123.174 40.7168 125.966 38.3694 125.966 35.4725V9.03418C125.966 6.13729 123.174 3.79006 119.727 3.79006H10.7604Z" fill="#385785"/>
<path d="M109.864 44.5068H20.6227C15.487 44.5068 11.3049 40.9916 11.3049 36.6749V15.9615C11.3049 11.6448 15.487 8.12964 20.6227 8.12964H109.864C115 8.12964 119.182 11.6448 119.182 15.9615V36.6749C119.182 40.9916 115 44.5068 109.864 44.5068ZM20.6227 11.9312C17.9799 11.9312 15.8275 13.7402 15.8275 15.9615V36.6749C15.8275 38.8962 17.9799 40.7054 20.6227 40.7054H109.864C112.507 40.7054 114.659 38.8962 114.659 36.6749V15.9615C114.659 13.7402 112.507 11.9312 109.864 11.9312H20.6227Z" fill="#385785"/>
<path d="M98.1759 44.5068H32.2974V23.0607H98.1759V44.5068ZM36.8065 40.7168H93.6533V26.8621H36.8065V40.7168Z" fill="#385785"/>
<path d="M33.5784 20.0837H20.9912V8.14111H33.5784V20.0837ZM25.5138 16.2821H29.0693V11.9312H25.5138V16.2821Z" fill="#385785"/>
<path d="M107.861 20.0837H95.2739V8.14111H107.861V20.0837ZM99.7965 16.2821H103.352V11.9312H99.7965V16.2821Z" fill="#385785"/>
<path d="M88.4893 53.6899H41.9819V41.2894H88.4893V53.6899ZM46.5047 49.8998H83.9803V45.0908H46.5047V49.8998Z" fill="#385785"/>
<path d="M77.1838 117.811H53.2898V49.8998H77.1838V117.811ZM57.7989 114.021H72.661V53.7013H70.7131V87.9487H59.7332V53.7013H57.7853V114.021H57.7989ZM64.256 84.1587H66.2039V56.7356H64.256V84.1587Z" fill="#385785"/>
</svg>
