<svg width="245" height="163" viewBox="0 0 245 163" fill="none" xmlns="http://www.w3.org/2000/svg">
<path d="M27.4199 54.26C12.5299 54.26 0.419922 42.15 0.419922 27.26C0.419922 12.37 12.5299 0.26001 27.4199 0.26001C42.3099 0.26001 54.4199 12.37 54.4199 27.26C54.4199 42.15 42.3099 54.26 27.4199 54.26ZM27.4199 6.26001C15.8399 6.26001 6.41992 15.68 6.41992 27.26C6.41992 38.84 15.8399 48.26 27.4199 48.26C38.9999 48.26 48.4199 38.84 48.4199 27.26C48.4199 15.68 38.9999 6.26001 27.4199 6.26001Z" fill="#395886"/>
<path d="M27.4199 39.54C20.6499 39.54 15.1299 34.03 15.1299 27.25C15.1299 20.47 20.6399 14.96 27.4199 14.96C34.1999 14.96 39.7099 20.47 39.7099 27.25C39.7099 34.03 34.1999 39.54 27.4199 39.54ZM27.4199 18.97C22.8499 18.97 19.1299 22.69 19.1299 27.26C19.1299 31.83 22.8499 35.55 27.4199 35.55C31.9899 35.55 35.7099 31.83 35.7099 27.26C35.7099 22.69 31.9899 18.97 27.4199 18.97Z" fill="#395886"/>
<path d="M152.42 48.26H26.4199V54.26H152.42V48.26Z" fill="#395886"/>
<path d="M196.1 103.09C189.83 103.09 186.64 100.07 183.82 97.4001C181.28 94.9901 179.27 93.0901 174.98 93.0901C170.69 93.0901 168.69 94.9901 166.15 97.4001C163.34 100.06 160.15 103.09 153.88 103.09C147.61 103.09 144.42 100.07 141.61 97.4001C139.07 94.9901 137.06 93.0901 132.78 93.0901C128.5 93.0901 126.49 94.9901 123.95 97.4001C121.14 100.06 117.95 103.09 111.68 103.09C105.41 103.09 102.22 100.07 99.4099 97.4001C96.8699 94.9901 94.8599 93.0901 90.5799 93.0901C86.2999 93.0901 84.2899 94.9901 81.7499 97.4001C78.9399 100.07 75.7499 103.09 69.4799 103.09C63.2099 103.09 60.0199 100.07 57.2099 97.4001C54.6699 94.9901 52.6599 93.0901 48.3799 93.0901V88.0901C54.6499 88.0901 57.8399 91.1101 60.6499 93.7801C63.1899 96.1901 65.1999 98.0901 69.4799 98.0901C73.7599 98.0901 75.7699 96.1901 78.3099 93.7801C81.1199 91.1101 84.3099 88.0901 90.5799 88.0901C96.8499 88.0901 100.04 91.1101 102.85 93.7801C105.39 96.1901 107.4 98.0901 111.68 98.0901C115.96 98.0901 117.97 96.1901 120.51 93.7801C123.32 91.1201 126.51 88.0901 132.78 88.0901C139.05 88.0901 142.24 91.1101 145.05 93.7801C147.59 96.1901 149.6 98.0901 153.88 98.0901C158.16 98.0901 160.17 96.1901 162.71 93.7801C165.52 91.1201 168.71 88.0901 174.98 88.0901C181.25 88.0901 184.44 91.1101 187.26 93.7801C189.8 96.1901 191.81 98.0901 196.1 98.0901C200.39 98.0901 202.39 96.1901 204.94 93.7801C207.75 91.1201 210.94 88.0901 217.22 88.0901V93.0901C212.94 93.0901 210.93 94.9901 208.38 97.4001C205.57 100.06 202.38 103.09 196.1 103.09Z" fill="#395886"/>
<path d="M196.1 138.09C189.83 138.09 186.64 135.07 183.82 132.4C181.28 129.99 179.27 128.09 174.98 128.09C170.69 128.09 168.69 129.99 166.15 132.4C163.34 135.06 160.15 138.09 153.88 138.09C147.61 138.09 144.42 135.07 141.61 132.4C139.07 129.99 137.06 128.09 132.78 128.09C128.5 128.09 126.49 129.99 123.95 132.4C121.14 135.06 117.95 138.09 111.68 138.09C105.41 138.09 102.22 135.07 99.4099 132.4C96.8699 129.99 94.8599 128.09 90.5799 128.09C86.2999 128.09 84.2899 129.99 81.7499 132.4C78.9399 135.07 75.7499 138.09 69.4799 138.09C63.2099 138.09 60.0199 135.07 57.2099 132.4C54.6699 129.99 52.6599 128.09 48.3799 128.09V123.09C54.6499 123.09 57.8399 126.11 60.6499 128.78C63.1899 131.19 65.1999 133.09 69.4799 133.09C73.7599 133.09 75.7699 131.19 78.3099 128.78C81.1199 126.11 84.3099 123.09 90.5799 123.09C96.8499 123.09 100.04 126.11 102.85 128.78C105.39 131.19 107.4 133.09 111.68 133.09C115.96 133.09 117.97 131.19 120.51 128.78C123.32 126.12 126.51 123.09 132.78 123.09C139.05 123.09 142.24 126.11 145.05 128.78C147.59 131.19 149.6 133.09 153.88 133.09C158.16 133.09 160.17 131.19 162.71 128.78C165.52 126.12 168.71 123.09 174.98 123.09C181.25 123.09 184.44 126.11 187.26 128.78C189.8 131.19 191.81 133.09 196.1 133.09C200.39 133.09 202.39 131.19 204.94 128.78C207.75 126.12 210.94 123.09 217.22 123.09V128.09C212.94 128.09 210.93 129.99 208.38 132.4C205.57 135.06 202.38 138.09 196.1 138.09Z" fill="#395886"/>
<path d="M235.77 162.59H33.5001C28.7301 162.59 24.8501 158.45 24.8501 153.37V53.26H30.8501V153.37C30.8501 155.15 32.0401 156.59 33.5001 156.59H235.77C237.23 156.59 238.42 155.14 238.42 153.37V50.26H244.42V153.37C244.42 158.46 240.54 162.59 235.77 162.59Z" fill="#395886"/>
</svg>
