<svg width="178" height="103" viewBox="0 0 178 103" fill="none" xmlns="http://www.w3.org/2000/svg">
<path d="M177.958 70.4175C177.958 69.3496 177.958 68.2694 177.958 67.1891V33.6752V32.2969C177.958 30.1984 177.958 28.038 177.958 25.8898C177.958 24.7474 177.29 23.6919 176.171 23.1579C175.176 22.6861 174.18 22.2142 173.184 21.7424C170.183 20.3268 167.101 18.8741 164.114 17.322C161.167 15.7822 158.153 15.0373 154.907 15.0373C154.348 15.0373 153.775 15.062 153.188 15.0992C153.011 15.1117 152.82 15.1365 152.629 15.149C152.07 15.1986 151.415 15.2607 150.801 15.2607C149.669 15.2607 148.837 15.062 148.196 14.6398C147.187 13.9693 147.146 12.6904 147.119 11.4611C147.119 11.0762 147.105 10.7036 147.064 10.4055C146.273 4.45775 141.035 0.0993975 134.611 0.0621462C128.718 0.0248948 122.731 0 116.838 0C110.155 0 103.376 0.024907 96.706 0.0745754C90.0907 0.124244 84.7576 4.78065 84.2938 10.9271C84.2393 11.5604 84.2119 12.206 84.1847 12.9014C84.1847 13.2367 84.1573 13.5844 84.1437 13.9445L84.0892 14.9378L82.998 15C82.7525 15 82.5206 15.0247 82.2887 15.0495C81.6749 15.0868 81.1021 15.1241 80.4883 15.1241C79.4653 15.1241 78.4286 15.1241 77.392 15.1241H74.6368C73.7093 15.1241 72.7954 15.1241 71.8816 15.1241C70.2039 15.1241 68.5262 15.1241 66.8485 15.1365C58.7328 15.1986 53.4543 20.0289 53.3861 27.4544C53.3861 28.6091 53.3861 29.7639 53.3861 30.9932V33.6876H52.1721C51.722 33.6876 51.2992 33.6876 50.8764 33.6752C50.4945 33.6752 50.1125 33.6752 49.7443 33.6752C49.2396 33.6752 48.8167 33.6752 48.4485 33.7125C48.0256 33.7497 47.6028 33.7746 47.18 33.7995C45.4886 33.9112 43.8792 34.0105 42.3515 34.3458C39.8964 34.8797 38.7233 36.2829 38.6415 38.729C38.546 41.5601 38.4915 43.2737 35.2725 43.2737C34.6996 43.2737 34.0312 43.2364 33.1856 43.1867C32.9401 43.1743 32.7354 43.0998 32.5581 43.0377C32.4763 43.0129 32.3808 42.9757 32.2308 42.926L31.4124 42.6653V40.5046C31.4124 39.5485 31.4124 38.58 31.4124 37.599C31.3988 35.0039 29.1209 32.8806 26.2565 32.8185C24.3061 32.7688 22.2874 32.7192 20.3096 32.7192C19.805 32.7192 19.3003 32.7192 18.7956 32.7192C17.5135 32.7316 16.2041 32.8806 15.0174 33.1538C13.0805 33.5884 12.3167 34.5072 12.2758 36.3946C12.2485 37.5991 12.2485 38.816 12.2758 40.1197C12.2758 40.7654 12.2758 41.436 12.2758 42.1437V43.2489H3.96922C1.77322 43.2489 0 44.8632 0 46.8623V57.1684C0 59.1552 1.7732 60.7694 3.95556 60.7818L11.5393 60.8067C11.9485 60.8067 12.2758 61.1046 12.2758 61.4771V63.613C12.2758 64.7305 12.2758 65.8355 12.2758 66.9407C12.2894 69.66 13.2579 70.7404 15.8222 70.9142C17.6772 71.0384 19.6413 71.1004 21.7964 71.1004C23.7742 71.1004 25.9156 71.0507 28.5208 70.9389C30.3212 70.8644 31.3442 69.2006 31.4124 67.5864C31.4806 66.1087 31.467 64.7429 31.4124 63.4391C31.3851 62.8679 31.4124 62.036 32.0671 61.4151C32.5172 60.9929 33.1446 60.7694 33.9494 60.7694C34.0585 60.7694 34.1813 60.7694 34.2904 60.7818C34.6177 60.7943 34.9587 60.8067 35.3952 60.8067C35.6816 60.8067 35.9681 60.8067 36.2955 60.8067C36.6501 60.8067 37.0456 60.8067 37.4548 60.8067H38.6688V61.9118C38.6688 62.2843 38.6688 62.6569 38.6688 63.0045C38.6688 63.6875 38.6688 64.3331 38.6688 64.9788C38.7233 67.7727 39.9509 69.1881 42.7879 69.6972C44.3974 69.9952 46.0479 70.0697 47.8074 70.1567C48.4894 70.1815 49.185 70.2189 49.867 70.2685C50.0989 70.2685 50.3307 70.2934 50.6444 70.2934C50.8627 70.2934 51.0809 70.2934 51.3128 70.2934C51.5856 70.2934 51.8857 70.2934 52.1994 70.2934H53.4134V73.1741C53.4134 74.0309 53.4134 74.8753 53.4134 75.6948C53.4134 82.934 59.8922 88.7947 67.8442 88.7947H81.4431L80.9247 90.2476C80.8156 90.5704 80.6929 90.8809 80.5974 91.1789C80.3655 91.8494 80.1336 92.4827 79.9018 93.1036C79.1516 95.0531 78.3878 97.0397 77.5285 99.2003C76.6692 101.423 76.6418 101.622 78.3468 103H154.061C154.852 102.404 155.289 102.007 155.384 101.696C155.493 101.348 155.275 100.678 154.852 99.5604C153.72 96.5679 152.588 93.5878 151.32 90.2476L150.76 88.77H152.479C152.97 88.77 153.42 88.7823 153.843 88.7947C154.211 88.7947 154.552 88.8196 154.893 88.8196C155.357 88.8196 155.712 88.7949 156.025 88.7576C156.394 88.7079 156.775 88.6459 157.144 88.5962C158.767 88.3851 160.308 88.174 161.604 87.6276C164.891 86.2121 168.192 84.6226 171.37 83.0953C172.993 82.3131 174.671 81.5059 176.349 80.7236C177.535 80.1649 178.026 79.4323 177.999 78.1782C177.944 75.5955 177.958 73.0499 177.972 70.3678L177.958 70.4175ZM12.194 55.6411C12.194 56.3489 11.5529 56.9326 10.7754 56.9326H5.67419C4.89672 56.9326 4.2556 56.3489 4.2556 55.6411V48.7744C4.2556 48.0667 4.89672 47.4832 5.67419 47.4832H10.7754C11.5529 47.4832 12.194 48.0667 12.194 48.7744V55.6411ZM27.1568 46.527C27.1568 47.4831 27.1568 48.4267 27.1568 49.3829C27.1568 53.0211 27.1568 56.6594 27.1568 60.3597V66.4937C27.1568 66.8662 26.8294 67.1642 26.4202 67.1642H17.377C16.9679 67.1642 16.6405 66.8662 16.6405 66.4937V36.7175H17.8545C18.4274 36.7175 18.9866 36.7175 19.5595 36.7175C20.1323 36.7175 20.7052 36.7175 21.2644 36.7175C22.3147 36.7175 23.706 36.7174 25.1109 36.7919C26.3521 36.854 27.1295 38.3814 27.1432 39.2009C27.1841 41.6471 27.1705 44.1305 27.1568 46.5394V46.527ZM38.6006 54.7967C38.5597 55.6783 37.4957 56.709 36.5137 56.8331C36.0226 56.8952 35.4771 56.9201 34.8224 56.9201C34.4814 56.9201 34.154 56.9201 33.7994 56.9201C33.4584 56.9201 33.1174 56.9077 32.7627 56.9077H31.5488V47.1727H32.7627C33.1037 47.1727 33.4447 47.1727 33.7721 47.1727C34.1131 47.1727 34.4677 47.1727 34.8087 47.1727C35.5589 47.1727 36.1454 47.1975 36.691 47.2472C37.7958 47.3589 38.5732 48.5634 38.6142 49.3209C38.7096 51.3573 38.6961 53.1577 38.6006 54.834V54.7967ZM53.3042 65.5375C53.3042 65.91 52.9769 66.2081 52.5677 66.2081H43.3472L43.2381 65.2022C43.2244 65.0657 43.2108 64.9167 43.1835 64.7801C43.129 64.4076 43.0881 64.0227 43.0881 63.613C43.0881 61.0426 43.0881 58.4846 43.0881 55.9143C43.0881 50.8729 43.088 45.6577 43.0471 40.5419C43.0471 39.7844 43.1154 38.9278 43.7973 38.3193C44.2747 37.8847 44.9431 37.6612 45.8297 37.6612C45.9524 37.6612 46.0751 37.6612 46.2115 37.6612C46.8526 37.6984 47.5755 37.7108 48.4348 37.7108C49.0077 37.7108 49.5806 37.7108 50.1671 37.7108C50.7945 37.7108 51.4219 37.6985 52.0766 37.6985H53.2906V65.5375H53.3042ZM79.5062 55.815V84.8089H78.2923C76.8737 84.8089 75.4416 84.8338 74.064 84.8586C72.7136 84.8835 71.3087 84.9082 69.9447 84.9082C67.8033 84.9082 66.0574 84.8462 64.4342 84.7221C60.656 84.4365 57.7644 81.1708 57.669 77.1228C57.6144 74.8008 57.628 72.4538 57.6417 70.1815C57.6417 69.1385 57.6417 68.1078 57.6417 67.0648V28.1372C57.628 22.0777 60.9834 19.0107 67.626 19.0107C68.4716 19.0107 69.3036 19.0107 70.1493 19.0107C70.9813 19.0107 71.8134 19.0231 72.6454 19.0231C74.023 19.0231 75.1415 18.9982 76.1645 18.9609C76.2872 18.9609 76.3964 18.9609 76.5191 18.9609C77.1602 18.9609 78.074 19.0355 78.756 19.6439C79.4516 20.2896 79.5471 21.2209 79.5471 21.9659C79.4926 33.2407 79.4926 44.7016 79.5062 55.7777V55.815ZM90.5681 6.55627C92.2048 4.81787 94.7691 3.89898 97.9608 3.88656C103.853 3.88656 109.827 3.86185 115.72 3.86185C121.612 3.86185 127.586 3.86173 133.479 3.88656C136.657 3.88656 139.194 4.79314 140.831 6.5067C142.549 8.29477 143.204 10.8899 142.727 14.019L142.59 14.9751H88.8904L88.7403 14.019C88.2356 10.9271 88.8767 8.34432 90.5681 6.54384V6.55627ZM83.7345 22.5371V19.1721L84.9075 19.1224C85.2349 19.1224 85.5214 19.0975 85.7941 19.0851C86.2579 19.0603 86.6534 19.0355 87.0626 19.0355H112.351C121.858 19.0355 133.07 19.0355 144.2 18.9982H144.24C145.141 18.9982 146.273 19.0976 147.009 19.8178C147.76 20.5504 147.76 21.5686 147.705 22.2764C147.555 24.0893 147.623 25.9643 147.705 27.7648C147.719 28.336 147.678 29.143 147.05 29.7391C146.409 30.3351 145.536 30.3972 144.936 30.3972H144.909C134.761 30.3848 123.781 30.3723 110.318 30.3723C102.366 30.3723 94.4145 30.3723 86.4761 30.3723C85.8351 30.3723 84.9894 30.3724 84.362 29.7888C83.9528 29.4163 83.7482 28.8947 83.7618 28.2242C83.7891 26.3492 83.7755 24.4866 83.7618 22.5247L83.7345 22.5371ZM83.6936 47.1106C83.8164 44.056 83.7755 40.9268 83.7345 37.9095V36.7919C83.7209 36.1462 83.7891 35.4137 84.3892 34.8549C84.853 34.4327 85.494 34.2216 86.367 34.2216C99.5157 34.234 112.883 34.2465 125.827 34.2465C132.415 34.2465 139.003 34.2465 145.591 34.2465C145.864 34.2465 146.082 34.2961 146.3 34.3582C146.382 34.3706 146.477 34.4079 146.587 34.4203L147.541 34.6189V49.4202C147.541 49.7927 147.214 50.0907 146.805 50.0907H121.326C111.15 50.0907 99.1202 50.0906 87.0353 50.1279H86.9808C86.0942 50.1279 85.0985 50.041 84.4029 49.3829C83.7072 48.7372 83.6527 47.8183 83.68 47.0982L83.6936 47.1106ZM147.555 54.772V69.002C147.555 69.3745 147.228 69.6725 146.818 69.6725H84.6348C84.2256 69.6725 83.8982 69.3745 83.8982 69.002V54.772C83.8982 54.3995 84.2256 54.1014 84.6348 54.1014H146.818C147.228 54.1014 147.555 54.3995 147.555 54.772ZM83.6936 81.7295C83.8028 80.2146 83.7755 78.6997 83.7482 77.0855C83.7482 76.3529 83.7209 75.6202 83.7209 74.8628V73.8198L84.8667 73.7577C85.1258 73.7577 85.3713 73.7329 85.6032 73.7081C86.1078 73.6708 86.5852 73.6459 87.0626 73.6459H107.74C118.734 73.6459 131.528 73.6459 144.186 73.5962H144.227C145.182 73.5962 146.246 73.6956 146.982 74.4034C147.705 75.1111 147.746 76.0796 147.691 76.8495C147.582 78.3644 147.61 79.9166 147.637 81.5556C147.637 82.3007 147.65 83.0456 147.65 83.8279V84.933H122.894C112.228 84.933 99.6385 84.9331 87.199 84.9703H87.1581C86.2033 84.9703 85.1258 84.871 84.3892 84.1632C83.6527 83.4554 83.6254 82.4745 83.68 81.7171L83.6936 81.7295ZM82.125 99.0017L82.6979 97.524C82.9298 96.9032 83.1617 96.2947 83.3935 95.6863C84.1028 93.7865 84.7848 91.986 85.6168 90.1979C86.2306 88.8817 88.6585 88.8445 88.7676 88.8445C92.6004 88.8196 96.3922 88.8072 99.2566 88.8072C100.812 88.8072 102.366 88.8072 103.921 88.8072H122.485C128.664 88.8072 135.975 88.8073 143.313 88.77H143.354C144.923 88.77 146.614 89.0804 147.309 91.3279C147.746 92.7062 148.292 94.0596 148.878 95.5C149.137 96.1581 149.41 96.8162 149.683 97.5116L150.256 98.9893H82.1114L82.125 99.0017ZM173.771 75.3844C173.771 76.9986 173.102 78.0043 171.493 78.7245C170.033 79.3826 168.56 80.1028 167.128 80.7858C164.864 81.8785 162.531 83.0084 160.131 83.9893C158.508 84.6474 156.707 84.7469 154.975 84.8462C154.689 84.8586 154.416 84.8709 154.143 84.8958H154.102H154.048C152.656 84.8958 151.906 82.8967 151.906 82.2013C151.851 76.6385 151.865 70.9886 151.865 65.5127V51.9036C151.865 49.5071 151.865 47.1105 151.865 44.714C151.865 37.2638 151.865 29.5528 151.811 21.9659C151.811 21.2706 151.879 20.2648 152.629 19.5942C153.093 19.1721 153.706 18.9609 154.457 18.9609C154.743 18.9609 155.043 18.9983 155.398 19.0604C155.752 19.1225 156.121 19.1846 156.503 19.2342C157.88 19.4453 159.312 19.6688 160.636 20.2399C162.845 21.1712 165.014 22.2143 167.128 23.2325C168.547 23.9155 170.02 24.6233 171.479 25.2814C173.089 26.014 173.771 27.0073 173.771 28.6091C173.716 43.7828 173.716 59.5153 173.771 75.3719V75.3844Z" fill="#385785"/>
</svg>
