<svg width="241" height="286" viewBox="0 0 241 286" fill="none" xmlns="http://www.w3.org/2000/svg">
<g clip-path="url(#clip0_128_71)">
<path d="M217.7 204.72C185.01 264.51 120.45 281.9 120.45 281.9C120.45 281.9 55.9102 264.5 23.2002 204.72C-9.49977 144.94 9.47023 34.35 9.47023 34.35C58.5202 45.56 120.45 4 120.45 4C120.45 4 182.38 45.56 231.42 34.35C231.42 34.35 250.39 144.94 217.7 204.72Z" stroke="#385785" stroke-width="8" stroke-linecap="round" stroke-linejoin="round"/>
<path d="M120.45 203.01C154.934 203.01 182.89 175.055 182.89 140.57C182.89 106.085 154.934 78.1299 120.45 78.1299C85.9651 78.1299 58.0098 106.085 58.0098 140.57C58.0098 175.055 85.9651 203.01 120.45 203.01Z" stroke="#385785" stroke-width="8" stroke-linecap="round" stroke-linejoin="round"/>
<path d="M91.7998 145.9L108.3 162.41L149.1 121.62" stroke="#385785" stroke-width="8" stroke-linecap="round" stroke-linejoin="round"/>
</g>
<defs>
<clipPath id="clip0_128_71">
<rect width="240.89" height="285.91" fill="white"/>
</clipPath>
</defs>
</svg>
