<svg width="280" height="280" viewBox="0 0 280 280" fill="none" xmlns="http://www.w3.org/2000/svg">
<g clip-path="url(#clip0_128_67)">
<path d="M139.6 275.2C214.49 275.2 275.2 214.49 275.2 139.6C275.2 64.7102 214.49 4 139.6 4C64.7102 4 4 64.7102 4 139.6C4 214.49 64.7102 275.2 139.6 275.2Z" stroke="#385785" stroke-width="8" stroke-linecap="round" stroke-linejoin="round"/>
<path d="M174.2 108.71L220.14 108.34C231.06 108.25 235.71 122.18 226.93 128.67L189.98 155.98C186.05 158.88 184.44 163.98 185.99 168.61L200.54 212.19C204 222.55 192.19 231.28 183.3 224.93L145.91 198.23C141.94 195.39 136.59 195.44 132.66 198.34L95.7098 225.65C86.9298 232.14 74.9798 223.6 78.2698 213.19L92.1098 169.38C93.5798 164.72 91.8898 159.65 87.9098 156.81L50.5198 130.11C41.6398 123.77 46.0598 109.76 56.9798 109.67L102.92 109.3C107.8 109.26 112.1 106.08 113.57 101.43L127.41 57.62C130.7 47.21 145.39 47.09 148.85 57.45L163.4 101.03C164.95 105.66 169.3 108.77 174.18 108.73L174.2 108.71Z" stroke="#385785" stroke-width="8" stroke-linecap="round" stroke-linejoin="round"/>
</g>
<defs>
<clipPath id="clip0_128_67">
<rect width="279.21" height="279.21" fill="white"/>
</clipPath>
</defs>
</svg>
