<svg width="281" height="171" viewBox="0 0 281 171" fill="none" xmlns="http://www.w3.org/2000/svg">
<path d="M265.02 128.53C263.49 128.23 262.8 127.46 262.7 125.94C262.37 120.94 261.03 116.06 258.71 111.42C258.17 110.35 258.3 109.06 258.99 108.08L259.86 106.85C262.05 103.75 264.32 100.54 266.4 97.3C267.17 96.09 267.84 95.06 268.43 94.16C271.017 90.2 272.227 85.65 272.06 80.51C272.03 79.44 271.99 78.21 271.95 76.82C271.95 76.66 271.94 76.5 271.93 76.34C271.89 75.59 271.84 74.74 272.26 74.04C273.45 72.04 273.38 69.85 273.3 67.53C273.28 67.12 273.27 66.71 273.26 66.31C273.11 58.11 267.87 50.55 260.23 47.49C258.77 46.9 257.31 46.31 255.86 45.69C252.13 44.1 248.41 42.5 244.63 40.88L239.78 38.8L240.56 37.28C240.78 36.84 240.98 36.45 241.19 36.06C242.29 34.08 243.39 32.1 244.49 30.12C246.54 26.45 248.58 22.78 250.6 19.1C252.88 14.94 252.92 10.2 250.72 6.42004C248.51 2.65004 244.36 0.370039 239.63 0.320039C238.09 0.310039 236.55 0.310039 235.01 0.320039C232.8 0.340039 230.5 0.340038 228.24 0.280038C227.05 0.260038 226.49 0.540038 225.84 1.53004C223.29 5.44004 220.7 9.33004 218.11 13.22C215.56 17.05 213.01 20.88 210.49 24.74C209.49 26.26 208.31 26.89 206.41 26.89C182.22 26.87 160.24 26.85 139.81 26.85C117.43 26.85 96.9099 26.87 77.3899 26.9C74.4899 26.9 71.6299 27.26 69.1199 27.93C42.1499 35.12 19.8099 51.16 0.829931 76.96C0.509931 77.41 0.309931 78.23 0.299931 79.17V81.71C0.239931 89.81 0.189931 98.18 0.329931 106.4C0.369931 108.77 0.789931 111.32 1.57993 113.99C3.18993 119.45 5.08993 124.92 6.77993 129.75C7.34993 131.41 7.10993 132.53 5.88993 133.73C-0.350069 139.92 -1.53007 149.46 3.01993 156.94C7.55993 164.42 16.5699 167.8 24.9199 165.16C25.4299 165 25.8999 164.92 26.3399 164.92C27.1599 164.92 27.9099 165.19 28.7299 165.76C33.4499 168.99 38.3599 170.56 43.7299 170.56H43.7499C77.1299 170.54 110.52 170.53 143.9 170.53C168.69 170.53 193.47 170.53 218.26 170.53C221.73 170.53 224.64 170.45 227.53 170.08C234.82 169.16 241.46 166.29 247.85 161.31L248.38 160.89L249.59 161.78C250 162.09 250.38 162.37 250.76 162.64C255.08 165.67 259.86 166.73 264.98 165.78C274.04 164.1 280.61 156.27 280.61 147.17C280.61 138.07 274.2 130.33 265.02 128.54V128.53ZM245.34 10.38C245.77 11.98 245.59 13.32 244.84 14.74C242.26 19.64 239.51 24.58 236.84 29.36C235.75 31.32 234.66 33.29 233.56 35.27L233.17 35.98L216.26 28.75L216.86 27.85C217.89 26.3 218.94 24.79 219.98 23.28C222.4 19.78 224.68 16.48 226.66 12.92L229.88 8.07004C230.17 7.64004 230.65 7.38004 231.17 7.38004H238.48C239.97 7.38004 241.47 7.64004 242.84 8.22004C243.98 8.70004 245.08 9.41004 245.34 10.38ZM7.34993 80.53C7.35993 79.84 7.81993 79.25 8.14993 78.82C24.6299 57.64 43.3099 43.74 65.2699 36.31C72.1499 33.98 77.6799 33.28 83.1699 34.03L83.9499 34.13V46.94H90.9999V33.92H101.54V51.34H108.67V33.96H119.2V46.93H126.23V33.82H142.61C164.4 33.81 186.18 33.82 207.97 33.85C209.35 33.86 210.81 34.15 212.09 34.69C223.9 39.68 235.7 44.72 247.5 49.75L257.66 54.08C264 56.78 267.41 63.51 265.77 70.09L265.6 70.77H205.69V61.98C205.67 54.02 200.52 48.87 192.57 48.86C179.82 48.84 167.08 48.84 154.33 48.86C146.57 48.87 141.33 54.09 141.29 61.84C141.28 63.63 141.28 65.42 141.29 67.31V70.87H138.05C135.56 70.9 133.07 70.91 130.59 70.91C125.07 70.91 119.37 70.92 113.79 71.26C103.25 71.9 93.3599 75.46 84.3999 81.82C73.8699 89.3 62.5199 92.94 49.7399 92.94C49.3599 92.94 48.9799 92.94 48.5999 92.93C39.8399 92.79 30.9399 92.83 22.3199 92.86C18.4699 92.87 14.6199 92.89 10.7699 92.89H7.32993V89.32C7.31993 86.35 7.31993 83.44 7.34993 80.53ZM148.44 66.98C148.41 64.81 148.37 62.56 148.51 60.36C148.68 57.66 150.92 55.9 154.22 55.88C157.97 55.85 161.72 55.86 165.48 55.86H175.67C181.2 55.86 186.72 55.86 192.25 55.87C196.62 55.88 198.58 57.85 198.58 62.26C198.59 64.4 198.57 66.55 198.56 68.69V69.33C198.55 69.55 198.5 69.72 198.45 69.87L198.2 70.73H148.46V69.83C148.46 68.88 148.45 67.93 148.44 66.98ZM20.5099 158.88C19.9799 158.94 19.4599 158.97 18.9499 158.97C15.6399 158.97 12.8099 157.7 10.5199 155.19C7.14993 151.49 6.36993 147.14 8.25993 142.63C10.0499 138.38 13.3499 135.98 18.3499 135.28L19.7699 135.09L19.3399 136.45C16.9899 143.84 17.5999 150.75 21.1999 157.56L21.8199 158.73L20.5099 158.88ZM21.8799 128.34C20.8299 128.39 19.7799 128.4 18.7099 128.4C18.0299 128.4 17.3399 128.4 16.6299 128.4C15.9099 128.39 15.1599 128.39 14.3999 128.39H13.7499L13.5499 127.77C13.0599 126.3 12.5699 124.8 12.0899 123.29C10.9599 119.78 9.79993 116.15 8.43993 112.64C7.28993 109.64 7.30993 106.74 7.32993 103.67C7.32993 102.77 7.33993 101.86 7.31993 100.94L7.28993 100.02H22.3399C31.5899 100.01 40.8399 100.01 50.0799 100.02H50.1399C63.8999 100.02 76.4999 96.04 87.5899 88.18C97.1399 81.41 107.95 77.97 119.7 77.97H264.73L264.82 78.88C265.22 82.58 265.6 86.06 263.13 89.46C261.01 92.39 259 95.48 257.05 98.48C256.19 99.8 255.34 101.12 254.47 102.43L253.89 103.3L253.11 102.6C252.43 101.98 251.78 101.37 251.15 100.78C249.85 99.55 248.62 98.39 247.29 97.39C234.85 87.99 221.52 86.07 206.51 91.49C202.97 92.77 199.16 93.39 195.48 93.98C194.72 94.1 193.96 94.22 193.2 94.35C176.41 97.18 159.62 99.97 142.83 102.77L103.31 109.35C87.6699 111.96 72.0299 114.57 56.3899 117.15C52.8299 117.74 49.2099 118.26 45.7099 118.77C43.7799 119.05 41.8499 119.33 39.9199 119.62C34.1399 120.49 29.2499 122.98 24.9699 127.23C24.0199 128.17 22.3599 128.32 21.8799 128.35V128.34ZM43.4599 163.44H43.2299C33.0799 163.32 24.8799 154.93 24.9499 144.75C24.9699 142.3 25.4799 139.93 26.4199 137.72C27.3599 135.52 28.7499 133.49 30.5299 131.74C34.0399 128.29 38.6099 126.39 43.4099 126.39H43.5899C53.6399 126.49 62.0699 135.01 61.9999 145.01C61.9599 149.95 59.9699 154.61 56.3899 158.12C52.8799 161.56 48.2999 163.44 43.4599 163.44ZM61.4199 163.4L62.6199 161.93C67.3699 156.1 69.4299 149.94 68.9299 143.09C68.4299 136.25 65.4499 130.41 59.8199 125.21L58.4699 123.97L191.42 101.8L190.08 103.6C182.91 113.2 180.03 123.2 181.29 134.18C182.55 145.12 187.59 154.16 196.71 161.81L198.6 163.4H61.4199ZM245.71 153.67C239.28 159.98 230.86 163.44 221.97 163.44H221.62C202.97 163.25 187.91 148.03 188.05 129.51C188.12 120.14 191.96 111.66 198.1 105.51C204.24 99.36 212.67 95.56 221.94 95.56H222.01C231.08 95.58 239.6 99.16 246 105.62C252.45 112.14 255.96 120.8 255.87 130C255.79 138.91 252.19 147.32 245.71 153.67ZM267.61 157.42C265.73 158.51 263.73 159.05 261.75 159.05C259.12 159.05 256.51 158.1 254.22 156.23L253.54 155.68L254.07 154.99C258.38 149.41 261.17 143.09 262.38 136.21L262.54 135.31L263.44 135.49C268.81 136.54 272.52 140.15 273.38 145.15C274.21 149.99 271.89 154.92 267.61 157.42Z" fill="#395886"/>
</svg>
