<svg width="201" height="229" viewBox="0 0 201 229" fill="none" xmlns="http://www.w3.org/2000/svg">
<path d="M200.5 115.97V198.95H196.06V115.97C196.06 115.14 195.7 114.65 195.56 114.58H86.15C86.05 114.64 85.69 115.14 85.69 115.97V195.94H81.25V115.97C81.25 112.47 83.41 109.72 86.15 109.72H195.6C198.35 109.72 200.5 112.46 200.5 115.97Z" fill="#395886"/>
<path d="M184.08 37.86C182.92 36.76 181.41 36.26 179.92 36.5L104.43 48.47C101.77 48.89 99.7598 51.55 99.7598 54.66V100.24C99.7598 103.68 102.18 106.49 105.16 106.49H180.65C183.63 106.49 186.05 103.68 186.05 100.24V42.69C186.05 40.82 185.33 39.06 184.07 37.86H184.08ZM181.61 100.23C181.61 100.98 181.17 101.61 180.65 101.61H105.16C104.64 101.61 104.2 100.98 104.2 100.23V54.65C104.2 53.96 104.58 53.35 105.06 53.28L180.55 41.31C180.55 41.31 180.62 41.31 180.65 41.31C180.84 41.31 181.01 41.39 181.16 41.54C181.44 41.81 181.6 42.23 181.6 42.69V100.24L181.61 100.23Z" fill="#395886"/>
<path d="M193.77 22.24L189.92 5.14998C189.23 2.09998 186.79 0.22998 184.24 0.77998L88.32 21.55C85.61 22.14 83.8 25.33 84.29 28.66L86.22 41.83C86.66 44.78 88.74 46.85 91.12 46.85C91.36 46.85 91.59 46.83 91.83 46.79L189.66 29.94C190.99 29.71 192.16 28.86 192.96 27.55C193.89 26.02 194.17 24.09 193.76 22.24H193.77ZM189.26 24.85C189.16 25 189.05 25.11 188.97 25.13L91.14 41.98C91.04 42.02 90.7 41.7 90.61 41.06L88.68 27.89C88.55 27.01 88.97 26.37 89.19 26.32L185.1 5.53998H185.11C185.21 5.53998 185.49 5.78998 185.6 6.30998L189.46 23.4C189.59 24.01 189.45 24.54 189.27 24.84L189.26 24.85Z" fill="#395886"/>
<path d="M82.4397 195.95L84.4897 192.91C83.0797 192.06 81.5997 191.17 79.9097 190.38C76.6597 188.83 72.6097 187.61 66.7097 187.61C57.7497 187.61 53.0697 190.43 48.9397 192.91C44.9797 195.29 41.5497 197.35 34.3197 197.35C27.0897 197.35 23.6597 195.29 19.7097 192.91C15.5797 190.43 10.8897 187.61 1.92969 187.61V192.48C9.15969 192.48 12.5897 194.54 16.5497 196.92C20.6697 199.4 25.3597 202.22 34.3197 202.22C43.2797 202.22 47.9697 199.4 52.0997 196.92C55.1297 195.1 57.8397 193.47 62.1797 192.8C64.6597 192.42 67.1897 192.48 69.6597 192.89C72.5797 193.37 77.0097 194.32 79.9097 195.95H82.4297H82.4397Z" fill="#395886"/>
<path d="M82.8999 218.86C78.7699 216.38 74.0899 213.56 65.1299 213.56C56.1699 213.56 51.4899 216.37 47.3599 218.86C43.3999 221.24 39.9799 223.3 32.7399 223.3C25.4999 223.3 22.0899 221.24 18.1299 218.86C13.9999 216.38 9.31986 213.56 0.359863 213.56V218.43C7.58986 218.43 11.0099 220.49 14.9799 222.87C19.1099 225.35 23.7899 228.17 32.7499 228.17C41.7099 228.17 46.3899 225.36 50.5199 222.87C54.4799 220.49 57.8999 218.43 65.1399 218.43C72.3799 218.43 75.7899 220.49 79.7599 222.87L82.9199 218.86H82.8999Z" fill="#395886"/>
<path d="M140.47 63.26L134.45 65.86L135.69 68.72L140.36 67.1V87.8H145.46V63.25H140.46L140.47 63.26Z" fill="#395886"/>
</svg>
