<svg width="248" height="207" viewBox="0 0 248 207" fill="none" xmlns="http://www.w3.org/2000/svg">
<path d="M247.91 87.37C247.88 84.97 246.62 83.73 244.17 83.71H243.27C240.17 83.66 236.95 83.62 233.81 83.72C231.73 83.79 231.03 82.75 230.63 81.17C227.7 69.37 220.33 62.05 208.72 59.44C206.66 58.97 204.5 58.84 202.21 58.7C201.11 58.63 199.99 58.56 198.84 58.46L198.16 58.39V25.65C198.16 13.46 189.68 4.93997 177.53 4.93997C167.67 4.92997 157.82 4.92997 147.96 4.92997H132.49L132.3 4.46997C130.86 1.04997 130.45 0.76997 126.74 0.76997H120.14C110.78 0.75997 101.43 0.74997 92.0801 0.76997C81.1101 0.78997 72.2101 5.07997 65.6201 13.52C61.3301 19.02 59.0801 25.49 58.9501 32.76C58.9201 34.71 58.9301 36.66 58.9301 38.65C58.9401 39.58 58.9401 40.51 58.9401 41.46V42.21H55.5001C51.5901 42.22 50.6901 43.11 50.6801 46.98C50.6701 49.44 50.6801 51.91 50.6801 54.45V57.5C50.6801 58.2 50.1201 58.76 49.4201 58.76H46.9301C32.2701 58.77 21.5101 67.26 18.1501 81.47C17.7601 83.1 16.9301 83.77 15.1701 83.72C11.8401 83.65 8.64007 83.67 4.79007 83.71C2.13007 83.73 0.930067 84.95 0.920067 87.67C0.900067 92.12 0.880067 97.41 0.920067 102.82C0.940067 105.64 2.16007 106.84 4.99007 106.87H6.23007C9.15007 106.9 12.1801 106.93 15.1401 106.84C16.9101 106.81 17.8001 107.5 18.2001 109.25C20.4701 119.33 26.5801 126.35 36.3601 130.09C36.9001 130.3 37.5601 130.46 38.1901 130.62C39.3001 130.89 40.4401 131.17 41.2701 131.75C41.7601 132.09 42.0301 132.68 42.0201 133.28L41.8801 140.18C41.8601 141.04 41.1701 141.75 40.3101 141.78L39.6901 141.8C31.1901 142.52 24.3101 148.31 22.5701 156.21C21.5501 160.81 21.6001 165.76 21.7401 170.42C21.9701 178.19 25.7801 184.11 32.7601 187.55C34.5901 188.45 36.6001 188.97 38.7301 189.52C39.7201 189.78 40.7201 190.04 41.7001 190.34L42.2401 190.5V198.4C42.2401 199.1 41.6801 199.66 40.9801 199.66H35.5701C34.8701 199.66 34.3101 200.22 34.3101 200.92V204.83C34.3101 205.53 34.8701 206.09 35.5701 206.09H55.9601C56.6601 206.09 57.2201 205.53 57.2201 204.83V200.88C57.2201 200.18 56.6601 199.62 55.9601 199.62H50.4701C49.7701 199.62 49.2101 199.06 49.2101 198.36V191.1C49.2101 190.4 49.7701 189.84 50.4701 189.84H198.38C199.08 189.84 199.64 190.4 199.64 191.1V198.4C199.64 199.1 199.08 199.66 198.38 199.66H192.89C192.19 199.66 191.63 200.22 191.63 200.92V204.8C191.63 205.5 192.19 206.06 192.89 206.06H213.32C214.02 206.06 214.58 205.5 214.58 204.8V200.8C214.58 200.1 214.02 199.54 213.32 199.54H207.88C207.18 199.54 206.62 198.98 206.62 198.28V189.87L207.32 189.83C215.54 189.3 221.38 185.62 225.17 178.59C225.63 177.72 226.96 177.35 227.74 177.31C228.84 177.26 229.95 177.27 231.02 177.27C232.15 177.27 233.31 177.28 234.45 177.22C234.69 177.2 235.2 176.91 235.36 176.73C235.46 175.11 235.45 173.48 235.43 171.75V170.6H228.63C227.93 170.6 227.37 170.04 227.37 169.34V161.86C227.37 161.16 227.93 160.6 228.63 160.6H234.02C234.72 160.6 235.28 160.04 235.28 159.34V155.3C235.28 154.6 234.7 154.03 234 154.04C233.89 154.04 233.79 154.04 233.68 154.04C231.67 154.06 229.77 154.08 227.84 153.96C226.88 153.9 225.5 153.23 224.93 152.27C221.12 145.79 215.85 142.35 208.82 141.76C207.73 141.66 206.29 141.29 206.4 139.13C206.49 137.3 206.49 135.7 206.4 134.24C206.29 132.38 206.99 131.49 208.89 131.04C219.28 128.62 226.33 122.29 229.87 112.21C230.23 111.19 230.51 110.14 230.81 109.02C230.95 108.49 231.09 107.96 231.24 107.41L231.4 106.86H235.64C238.49 106.88 241.32 106.88 244.15 106.86C246.61 106.84 247.88 105.59 247.91 103.17C247.96 98.09 247.97 92.93 247.91 87.37ZM17.7001 99.46C17.7001 100.16 17.1401 100.72 16.4401 100.72H7.96007C7.26007 100.72 6.70007 100.16 6.70007 99.46V90.98C6.70007 90.28 7.26007 89.72 7.96007 89.72H16.4401C17.1401 89.72 17.7001 90.28 17.7001 90.98V99.46ZM42.2701 182.76L41.5901 182.82C41.2701 182.85 40.9501 182.87 40.6301 182.87C37.9401 182.87 35.1901 181.79 32.9401 179.83C30.1601 177.4 28.4801 173.99 28.3401 170.47C28.2301 167.39 28.2301 164.16 28.3401 160.89C28.4701 157.39 30.1101 154.01 32.8401 151.61C35.3501 149.4 38.5401 148.3 41.5901 148.58L42.2701 148.64V182.76ZM42.3001 124.75L41.4001 124.57C36.2801 123.56 32.1501 121.01 28.7701 116.76C25.8801 113.14 24.3801 109.24 24.3201 105.19L24.3001 104.12C24.1901 97.64 24.0801 90.94 24.4501 84.37C24.9101 76.26 31.6501 68.32 39.7901 66.28C40.1801 66.18 40.5601 66.17 40.9601 66.16C41.1301 66.16 41.3101 66.16 41.5001 66.14L42.3001 66.09V124.75ZM132.02 12.93C132.02 12.26 132.55 11.7 133.22 11.67H133.44C133.97 11.62 134.5 11.59 135.04 11.59H140.8C153.1 11.58 165.4 11.58 177.71 11.59C185.82 11.6 191.49 17.3 191.5 25.45C191.5 29.53 191.48 33.62 191.45 37.7L191.43 40.83C191.43 41.1 191.31 41.31 191.22 41.47C191.19 41.52 191.16 41.58 191.12 41.65L190.91 42.08H181.86L181.8 41.39C181.78 41.23 181.76 41.06 181.74 40.88C181.7 40.46 181.65 40.01 181.64 39.55C181.63 37.89 181.63 36.23 181.63 34.57C181.63 32.91 181.63 31.25 181.62 29.59C181.59 24.67 178.44 21.49 173.58 21.49C164.58 21.49 155.58 21.51 146.59 21.54L133.28 21.57C132.59 21.57 132.02 21 132.02 20.31V12.93ZM191.38 50.26V57.36C191.38 58.06 190.82 58.62 190.12 58.62H183.02C182.32 58.62 181.76 58.06 181.76 57.36V50.26C181.76 49.56 182.32 49 183.02 49H190.12C190.82 49 191.38 49.56 191.38 50.26ZM127.02 32.34C130.35 32.34 130.98 31.89 132.23 28.72L132.42 28.24H173.54C174.24 28.24 174.8 28.8 174.8 29.5V57.35C174.8 58.05 174.24 58.61 173.54 58.61H100.06C99.3601 58.61 98.8001 58.05 98.8001 57.35V54.7C98.8001 52.32 98.8001 49.93 98.8001 47.55C98.8001 42.94 98.0901 42.24 93.4201 42.21H90.6301V41.46C90.6301 40.89 90.6101 40.33 90.5901 39.79C90.5401 38.57 90.5001 37.41 90.6801 36.25C90.9501 34.47 92.1101 32.35 96.0601 32.34C101.92 32.33 107.78 32.34 113.64 32.34H127.02ZM84.4901 8.42997C86.4201 7.83997 88.7201 7.52997 91.3101 7.49997C99.4701 7.42997 107.75 7.42997 115.77 7.43997H122.7C123.08 7.43997 123.43 7.49997 123.84 7.54997C124.04 7.57997 124.25 7.60997 124.49 7.63997L125.16 7.71997V11.37C125.16 15.51 125.16 19.79 125.07 23.98C125.04 25.04 123.04 25.64 122.38 25.64C117.29 25.68 112.19 25.68 107.1 25.68C103.39 25.69 99.6801 25.69 95.9701 25.7C94.9201 25.71 93.5601 25.76 92.3301 26.1C87.0501 27.59 83.8601 31.9 83.8001 37.64C83.8001 38.45 83.8001 39.27 83.8001 40.12V40.84C83.8001 41.54 83.2401 42.1 82.5401 42.1H66.0001L65.9101 41.45C63.6601 24.51 70.2601 12.78 84.5001 8.42997H84.4901ZM57.5001 50.31C57.5001 49.61 58.0601 49.05 58.7601 49.05H90.7601C91.4601 49.05 92.0201 49.61 92.0201 50.31V57.32C92.0201 58.02 91.4601 58.58 90.7601 58.58H58.7601C58.0601 58.58 57.5001 58.02 57.5001 57.32V50.31ZM49.2001 66.86C49.2001 66.16 49.7601 65.6 50.4601 65.6H198.32C199.02 65.6 199.58 66.16 199.58 66.86V123.76C199.58 124.46 199.02 125.02 198.32 125.02H191.16C190.46 125.02 189.9 124.46 189.9 123.76V88.13C189.9 84.73 188.85 83.7 185.43 83.7C166.8 83.69 148.18 83.69 129.55 83.7C126.25 83.7 125.25 84.72 125.24 88.05C125.24 95.97 125.24 103.88 125.24 111.8V123.61C125.24 124.31 124.68 124.87 123.98 124.87H86.3401V124.12C86.3401 122.82 86.3401 121.53 86.3501 120.24C86.3701 117.41 86.3901 114.47 86.3101 111.61C86.1901 107.18 84.1601 103.83 80.2801 101.66C76.7601 99.7 72.5501 99.71 69.0301 101.7C65.5001 103.7 63.3101 107.3 63.1801 111.34C63.1001 113.71 63.1201 116.12 63.1401 118.46C63.1501 119.54 63.1601 120.63 63.1501 121.72V123.64C63.1501 124.34 62.5901 124.9 61.8901 124.9H50.4701C49.7701 124.9 49.2101 124.34 49.2101 123.64V66.86H49.2001ZM131.87 108.05V92.57C131.87 92.32 131.9 92.06 131.93 91.75L132.04 90.56H181.83C182.53 90.56 183.09 91.12 183.09 91.82V158.08L182.38 158.12C182.12 158.13 181.87 158.15 181.62 158.17C181.1 158.21 180.61 158.24 180.12 158.24H165.03C154.97 158.24 144.91 158.24 134.85 158.26H134.74C133.95 158.26 133.08 158.24 132.47 157.63C132.03 157.19 131.83 156.55 131.83 155.61C131.88 139.76 131.87 123.64 131.87 108.05ZM125.15 133.12V140.19C125.15 140.89 124.59 141.45 123.89 141.45H87.7701C87.0701 141.45 86.5101 140.89 86.5101 140.19V133.12C86.5101 132.42 87.0701 131.86 87.7701 131.86H123.89C124.59 131.86 125.15 132.42 125.15 133.12ZM69.7901 136.58V129.7C69.7901 124.06 69.7901 118.41 69.7901 112.77C69.7901 110.74 70.3101 109.19 71.3501 108.17C72.2101 107.32 73.4001 106.89 74.7701 106.91C77.8001 106.94 79.6801 109.23 79.6801 112.89V160.2C79.6801 160.6 79.6901 161 79.6601 161.4C79.5001 164.39 77.4301 166.49 74.7101 166.49H74.5101C71.7501 166.39 69.8201 164.23 69.8001 161.25C69.7801 155.32 69.7901 149.38 69.7901 143.45V136.58ZM48.7001 140.46V132.98C48.7001 132.28 49.2601 131.72 49.9601 131.72H62.4401C63.1401 131.72 63.7001 132.28 63.7001 132.98V140.46C63.7001 141.16 63.1401 141.72 62.4401 141.72H49.9601C49.2601 141.72 48.7001 141.16 48.7001 140.46ZM199.63 181.58C199.63 182.28 199.07 182.84 198.37 182.84H50.4601C49.7601 182.84 49.2001 182.28 49.2001 181.58V149.69C49.2001 148.99 49.7601 148.43 50.4601 148.43H63.1501V149.18C63.1501 150.5 63.1501 151.8 63.1401 153.11C63.1301 156.08 63.1301 158.89 63.1601 161.76C63.2201 166.27 65.2901 169.64 69.3201 171.79C72.8801 173.68 77.0901 173.61 80.5701 171.58C84.0601 169.54 86.2101 165.89 86.3201 161.83C86.3901 159.03 86.3701 156.27 86.3501 153.34C86.3401 152.01 86.3401 150.66 86.3401 149.29V148.54H125.07L125.15 149.74C125.19 150.19 125.23 150.7 125.23 151.2V155.05C125.22 157.16 125.22 159.26 125.25 161.37C125.28 163.44 126.46 164.69 128.57 164.88C128.99 164.92 129.43 164.91 129.9 164.91H130.45L184.6 164.9C189.1 164.9 189.89 164.13 189.9 159.71C189.9 156.39 189.92 153.07 189.94 149.75C189.94 149.51 190.02 149.33 190.09 149.16C190.11 149.11 190.14 149.04 190.17 148.95L190.34 148.5L191.27 148.42C191.66 148.38 192.07 148.34 192.49 148.33C193.98 148.32 195.48 148.33 197.03 148.33H198.37C199.07 148.33 199.63 148.89 199.63 149.59V181.58ZM199.68 140.2C199.68 140.9 199.12 141.46 198.42 141.46H191.33C190.63 141.46 190.07 140.9 190.07 140.2V133.12C190.07 132.42 190.63 131.86 191.33 131.86H198.42C199.12 131.86 199.68 132.42 199.68 133.12V140.2ZM206.55 148.38H207.3C211.88 148.39 215.46 150.16 217.66 153.52C218.98 155.54 219.96 158.27 220.41 161.19C220.76 163.52 220.67 165.93 220.57 168.26C220.55 168.9 220.52 169.55 220.5 170.19C220.41 173.74 218.82 177.17 216.14 179.62C213.82 181.74 210.95 182.88 208.01 182.88C207.76 182.88 207.51 182.88 207.25 182.86L206.55 182.81V148.38ZM224.63 103.58C224.4 113.47 218.28 121.57 209.03 124.22C208.75 124.3 208.46 124.35 208.09 124.42C207.9 124.46 207.68 124.5 207.43 124.55L206.53 124.73V65.87L207.43 66.05C207.7 66.11 207.96 66.16 208.22 66.2C208.77 66.3 209.29 66.39 209.81 66.56C218.62 69.39 224.44 77.37 224.63 86.88C224.75 92.84 224.75 98.3 224.63 103.58ZM241.7 99.52C241.7 100.18 241.16 100.72 240.5 100.72H231.9C231.24 100.72 230.7 100.18 230.7 99.52V90.92C230.7 90.26 231.24 89.72 231.9 89.72H240.5C241.16 89.72 241.7 90.26 241.7 90.92V99.52Z" fill="#395886"/>
<path d="M173.19 116.9H166.84V123.3H173.19V116.9Z" fill="#395886"/>
<path d="M173.19 132.9H166.84V139.3H173.19V132.9Z" fill="#395886"/>
<path d="M173.24 100.4H166.87V106.7H173.24V100.4Z" fill="#395886"/>
</svg>
