<svg width="169" height="119" viewBox="0 0 169 119" fill="none" xmlns="http://www.w3.org/2000/svg">
<path d="M168.695 50.5776C168.668 49.201 167.81 48.4896 166.148 48.4782H165.535C163.423 48.4437 161.23 48.4208 159.091 48.4782C157.674 48.524 157.198 47.9162 156.925 47.0099C154.923 40.2416 149.909 36.0316 141.995 34.5403C140.592 34.2649 139.12 34.1961 137.554 34.1158C136.805 34.0699 136.042 34.0354 135.252 33.978L134.788 33.9322V15.1417C134.788 8.14402 129.012 3.25713 120.73 3.25713C114.014 3.25713 107.298 3.25713 100.582 3.25713H90.0383L89.9021 2.9933C88.9213 1.03166 88.6354 0.870943 86.1152 0.870943H81.6197C75.2443 0.870943 68.8689 0.859472 62.4936 0.870943C55.0148 0.882415 48.9528 3.34882 44.4573 8.18984C41.5285 11.3445 40.0028 15.0613 39.9075 19.237C39.8802 20.3612 39.8938 21.4741 39.8938 22.6212C39.8938 23.1604 39.8938 23.688 39.8938 24.2386V24.6746H37.5508C34.8808 24.6746 34.2677 25.1908 34.2677 27.4163C34.2677 28.8273 34.2677 30.2498 34.2677 31.7067V33.4618C34.2677 33.8634 33.8863 34.1846 33.4095 34.1846H31.7067C21.7213 34.1846 14.3788 39.06 12.0902 47.2163C11.8177 48.157 11.2592 48.5355 10.0604 48.5126C7.78547 48.4667 5.60595 48.4782 2.99042 48.5126C1.17862 48.5241 0.361181 49.2238 0.347558 50.784C0.347558 53.3421 0.320313 56.3707 0.347558 59.4795C0.361181 61.097 1.19221 61.7852 3.12661 61.8082H3.9712C5.96009 61.8311 8.03066 61.8426 10.0468 61.7967C11.2592 61.7737 11.8586 62.1754 12.1311 63.1849C13.6841 68.9665 17.8389 72.993 24.5139 75.1497C24.8817 75.2759 25.3313 75.3677 25.7673 75.4594C26.5301 75.62 27.3067 75.7807 27.8652 76.1134C28.2058 76.3084 28.3829 76.6524 28.3829 76.9966L28.2874 80.9544C28.2738 81.4477 27.7969 81.8606 27.2112 81.872H26.789C20.9994 82.2965 16.3131 85.6234 15.128 90.1546C14.4332 92.7931 14.4606 95.6381 14.5559 98.3109C14.7194 102.773 17.3077 106.169 22.062 108.142C23.3152 108.658 24.6775 108.957 26.1351 109.278C26.8162 109.427 27.4973 109.576 28.1648 109.748L28.5327 109.84V114.371C28.5327 114.773 28.1512 115.094 27.6745 115.094H23.9826C23.5058 115.094 23.1244 115.415 23.1244 115.817V118.065C23.1244 118.467 23.5058 118.788 23.9826 118.788H37.8777C38.3545 118.788 38.736 118.467 38.736 118.065V115.794C38.736 115.392 38.3545 115.071 37.8777 115.071H34.1315C33.6547 115.071 33.2733 114.75 33.2733 114.348V110.184C33.2733 109.783 33.6547 109.461 34.1315 109.461H134.938C135.415 109.461 135.797 109.783 135.797 110.184V114.371C135.797 114.773 135.415 115.094 134.938 115.094H131.192C130.715 115.094 130.334 115.415 130.334 115.817V118.042C130.334 118.444 130.715 118.765 131.192 118.765H145.114C145.591 118.765 145.973 118.444 145.973 118.042V115.748C145.973 115.346 145.591 115.025 145.114 115.025H141.409C140.932 115.025 140.551 114.704 140.551 114.302V109.473L141.028 109.45C146.626 109.14 150.604 107.029 153.193 103.003C153.506 102.498 154.418 102.292 154.95 102.269C155.699 102.234 156.462 102.246 157.184 102.246C157.96 102.246 158.75 102.246 159.527 102.211C159.69 102.2 160.045 102.028 160.154 101.925C160.222 100.995 160.222 100.055 160.208 99.0681V98.4027H155.577C155.1 98.4027 154.718 98.0815 154.718 97.68V93.3896C154.718 92.9881 155.1 92.6669 155.577 92.6669H159.255C159.731 92.6669 160.113 92.3456 160.113 91.9441V89.6269C160.113 89.2253 159.718 88.8927 159.241 88.9041C159.159 88.9041 159.091 88.9041 159.023 88.9041C157.647 88.9156 156.353 88.9272 155.045 88.8583C154.391 88.8239 153.451 88.4339 153.056 87.8833C150.454 84.1665 146.872 82.1934 142.077 81.8492C141.327 81.7918 140.347 81.5738 140.428 80.3349C140.496 79.2795 140.496 78.3618 140.428 77.5244C140.347 76.4575 140.837 75.9413 142.131 75.6889C149.215 74.3009 154.024 70.6643 156.435 64.8826C156.68 64.2976 156.871 63.6896 157.075 63.0472C157.17 62.7375 157.266 62.4391 157.375 62.1179L157.484 61.7967H160.371C162.32 61.8082 164.24 61.8082 166.175 61.7967C167.85 61.7852 168.722 61.0625 168.736 59.6745C168.777 56.7607 168.777 53.801 168.736 50.6119L168.695 50.5776ZM11.8042 57.5178C11.8042 57.9193 11.4227 58.2405 10.9459 58.2405H5.16999C4.6932 58.2405 4.31176 57.9193 4.31176 57.5178V52.6538C4.31176 52.2523 4.6932 51.9311 5.16999 51.9311H10.9459C11.4227 51.9311 11.8042 52.2523 11.8042 52.6538V57.5178ZM28.5463 105.32L28.083 105.355C27.8651 105.377 27.6471 105.389 27.4292 105.389C25.5901 105.389 23.7239 104.769 22.1845 103.645C20.291 102.246 19.1466 100.296 19.0513 98.2765C18.9695 96.5099 18.9695 94.6514 19.0513 92.7815C19.1466 90.774 20.2637 88.8354 22.1164 87.4588C23.8328 86.1855 25.9988 85.5545 28.083 85.7151L28.5463 85.7494V105.332V105.32ZM28.5734 72.0294L27.9605 71.9262C24.4731 71.3412 21.6533 69.8842 19.3511 67.4408C17.3758 65.3644 16.354 63.1274 16.3131 60.7987V60.1793C16.2178 56.4625 16.1498 52.6195 16.4086 48.8453C16.7219 44.1879 21.3128 39.6336 26.8571 38.4635C27.1296 38.4061 27.3884 38.3947 27.6608 38.3947C27.7834 38.3947 27.906 38.3947 28.0287 38.3832L28.5734 38.3488V72.0179V72.0294ZM89.7114 7.85726C89.7114 7.46722 90.0793 7.14601 90.5289 7.13454H90.6787C91.0465 7.10013 91.4006 7.08861 91.7684 7.08861H95.6917C104.07 7.08861 112.461 7.08861 120.853 7.08861C126.383 7.08861 130.238 10.3696 130.252 15.0385C130.252 17.3787 130.252 19.7304 130.211 22.0706V23.8716C130.198 24.0322 130.116 24.1469 130.048 24.2386C130.021 24.273 130.007 24.3076 129.98 24.342L129.83 24.5943H123.659L123.618 24.1928C123.618 24.1011 123.591 23.9978 123.577 23.8946C123.55 23.6537 123.509 23.3898 123.509 23.1259C123.509 22.1738 123.509 21.2216 123.509 20.2695C123.509 19.3173 123.509 18.3652 123.509 17.4131C123.495 14.591 121.343 12.767 118.033 12.767C111.903 12.767 105.759 12.7785 99.6423 12.8015H90.5696C90.0928 12.8129 89.7114 12.4917 89.7114 12.0902V7.85726ZM130.17 29.2862V33.3586C130.17 33.7602 129.789 34.0814 129.312 34.0814H124.476C123.999 34.0814 123.618 33.7602 123.618 33.3586V29.2862C123.618 28.8847 123.999 28.5634 124.476 28.5634H129.312C129.789 28.5634 130.17 28.8847 130.17 29.2862ZM86.3058 18.9962C88.5807 18.9962 89.0032 18.7322 89.8614 16.9197L89.9976 16.6444H118.019C118.496 16.6444 118.877 16.9656 118.877 17.3671V33.3472C118.877 33.7487 118.496 34.0699 118.019 34.0699H67.9426C67.4658 34.0699 67.0844 33.7487 67.0844 33.3472V31.8215C67.0844 30.4564 67.0844 29.0797 67.0844 27.7146C67.0844 25.0646 66.594 24.6632 63.42 24.6517H61.5128V24.2158C61.5128 23.8831 61.5128 23.5618 61.4855 23.2521C61.4447 22.5523 61.4175 21.8869 61.5537 21.2216C61.7444 20.2006 62.5344 18.9847 65.2181 18.9732C69.2095 18.9732 73.201 18.9732 77.206 18.9732H86.3194L86.3058 18.9962ZM57.3307 5.27615C58.6521 4.932 60.2186 4.75982 61.9759 4.73687C67.5339 4.69099 73.1736 4.69109 78.6499 4.70256H83.377C83.6359 4.70256 83.881 4.73691 84.1535 4.77132C84.2897 4.79426 84.4395 4.80579 84.6029 4.82874L85.0662 4.87453V6.97392C85.0662 9.34855 85.0662 11.8034 84.998 14.2124C84.9844 14.8204 83.6086 15.1647 83.159 15.1647C79.6853 15.1876 76.2115 15.1876 72.7514 15.1876C70.2176 15.1876 67.6975 15.1875 65.1637 15.199C64.4417 15.199 63.5153 15.2335 62.6843 15.4285C59.088 16.2889 56.9083 18.7553 56.8675 22.0476C56.8675 22.518 56.8675 22.9883 56.8675 23.4701V23.8831C56.8675 24.2846 56.486 24.6058 56.0092 24.6058H44.7434L44.6754 24.2271C43.136 14.5107 47.645 7.77696 57.3442 5.27615H57.3307ZM38.9267 29.3091C38.9267 28.9076 39.3081 28.5864 39.7849 28.5864H61.5946C62.0714 28.5864 62.4527 28.9076 62.4527 29.3091V33.3357C62.4527 33.7372 62.0714 34.0584 61.5946 34.0584H39.7849C39.3081 34.0584 38.9267 33.7372 38.9267 33.3357V29.3091ZM33.2733 38.8077C33.2733 38.4062 33.6547 38.0849 34.1315 38.0849H134.897C135.374 38.0849 135.756 38.4062 135.756 38.8077V71.4673C135.756 71.8688 135.374 72.19 134.897 72.19H130.021C129.544 72.19 129.162 71.8688 129.162 71.4673V51.0135C129.162 49.0633 128.44 48.4667 126.111 48.4667C113.415 48.4667 100.718 48.4667 88.0222 48.4667C85.7745 48.4667 85.0935 49.0518 85.0799 50.9676C85.0799 55.5103 85.0799 60.0531 85.0799 64.5958V71.3756C85.0799 71.7771 84.6984 72.0983 84.2216 72.0983H58.5703V71.6624C58.5703 70.9167 58.5703 70.171 58.5703 69.4368C58.5703 67.8079 58.5975 66.1216 58.543 64.4812C58.4613 61.9345 57.0719 60.0187 54.4291 58.7683C52.0316 57.6441 49.1572 57.644 46.7596 58.7911C44.3485 59.9383 42.8635 62.0033 42.7682 64.3205C42.7137 65.6857 42.7273 67.0622 42.7409 68.4044C42.7409 69.0238 42.7545 69.6548 42.7409 70.2742V71.3756C42.7409 71.7771 42.3595 72.0983 41.8827 72.0983H34.1043C33.6275 72.0983 33.246 71.7771 33.246 71.3756V38.7847L33.2733 38.8077ZM89.6161 62.4507V53.5716C89.6161 53.4225 89.6434 53.2733 89.657 53.1013L89.7387 52.413H123.672C124.149 52.413 124.531 52.7342 124.531 53.1357V91.1642L124.04 91.1871C123.863 91.1871 123.686 91.21 123.523 91.2214C123.168 91.2444 122.828 91.2559 122.501 91.2559H112.216C105.364 91.2559 98.498 91.2559 91.6459 91.2674H91.5642C91.0193 91.2674 90.4335 91.2559 90.0112 90.9003C89.7115 90.6479 89.5752 90.2808 89.5752 89.7417C89.6161 80.6447 89.6025 71.3985 89.6025 62.4507H89.6161ZM85.0389 76.8361V80.897C85.0389 81.2985 84.6575 81.6197 84.1807 81.6197H59.5647C59.0879 81.6197 58.7065 81.2985 58.7065 80.897V76.8361C58.7065 76.4346 59.0879 76.1134 59.5647 76.1134H84.1807C84.6575 76.1134 85.0389 76.4346 85.0389 76.8361ZM47.3044 78.8207V74.8744C47.3044 71.6394 47.3044 68.3929 47.3044 65.1579C47.3044 63.9878 47.6586 63.1045 48.367 62.5194C48.9528 62.0261 49.7702 61.7852 50.6966 61.7967C52.7672 61.8082 54.0477 63.1275 54.0477 65.2268V92.3801C54.0477 92.6095 54.0477 92.8389 54.034 93.0683C53.9251 94.7891 52.5083 95.9937 50.6557 95.9937H50.5195C48.6396 95.9363 47.318 94.6974 47.3044 92.9881C47.3044 89.581 47.3044 86.1739 47.3044 82.7668V78.8207ZM32.9327 81.0461V76.7557C32.9327 76.3542 33.3142 76.033 33.791 76.033H42.2914C42.7682 76.033 43.1496 76.3542 43.1496 76.7557V81.0461C43.1496 81.4476 42.7682 81.7688 42.2914 81.7688H33.791C33.3142 81.7688 32.9327 81.4476 32.9327 81.0461ZM135.797 104.643C135.797 105.045 135.415 105.366 134.938 105.366H34.1315C33.6547 105.366 33.2733 105.045 33.2733 104.643V86.346C33.2733 85.9445 33.6547 85.6233 34.1315 85.6233H42.7818V86.0592C42.7818 86.8163 42.7818 87.5621 42.7818 88.3192C42.7818 90.0285 42.7818 91.6345 42.7954 93.2864C42.8363 95.879 44.253 97.8062 46.9911 99.0452C49.4159 100.135 52.2903 100.089 54.6606 98.919C57.0446 97.7489 58.5022 95.6496 58.5839 93.3208C58.6384 91.7148 58.6248 90.1317 58.6112 88.4454C58.6112 87.6768 58.6112 86.9081 58.6112 86.1166V85.6807H85.0117L85.0662 86.3689C85.0935 86.6328 85.1206 86.9196 85.1206 87.2064V89.4204C85.1206 90.6364 85.1206 91.841 85.1206 93.0455C85.1478 94.2386 85.9516 94.9497 87.382 95.0644C87.6681 95.0873 87.9678 95.0874 88.2948 95.0874H88.6761H125.58C128.645 95.0874 129.19 94.64 129.19 92.1048C129.19 90.2005 129.19 88.2962 129.217 86.3919C129.217 86.2543 129.271 86.151 129.326 86.0477C129.326 86.0133 129.367 85.9789 129.38 85.9215L129.503 85.6577L130.143 85.6118C130.416 85.5888 130.688 85.566 130.974 85.5545C131.996 85.5545 133.018 85.5545 134.066 85.5545H134.979C135.456 85.5545 135.837 85.8757 135.837 86.2772V104.632L135.797 104.643ZM135.824 80.897C135.824 81.2985 135.442 81.6197 134.966 81.6197H130.13C129.653 81.6197 129.271 81.2985 129.271 80.897V76.8361C129.271 76.4346 129.653 76.1134 130.13 76.1134H134.966C135.442 76.1134 135.824 76.4346 135.824 76.8361V80.897ZM140.51 85.589H141.028C144.147 85.589 146.586 86.6099 148.084 88.5371C148.983 89.6957 149.651 91.2673 149.964 92.9422C150.209 94.2843 150.141 95.661 150.073 97.0032C150.059 97.3703 150.032 97.7488 150.018 98.1159C149.95 100.158 148.874 102.119 147.049 103.53C145.469 104.746 143.507 105.4 141.504 105.4C141.327 105.4 141.164 105.4 140.987 105.4L140.51 105.366V85.6118V85.589ZM152.838 59.881C152.675 65.5595 148.506 70.2054 142.213 71.7312C142.022 71.777 141.818 71.8114 141.572 71.8458C141.436 71.8688 141.286 71.8918 141.123 71.9262L140.51 72.0294V38.2456L141.123 38.3488C141.314 38.3832 141.491 38.4175 141.668 38.4405C142.049 38.4979 142.403 38.5553 142.758 38.647C148.765 40.276 152.729 44.8532 152.852 50.3137C152.934 53.7323 152.934 56.864 152.852 59.8925L152.838 59.881ZM164.472 57.5522C164.472 57.9308 164.104 58.2405 163.655 58.2405H157.797C157.347 58.2405 156.979 57.9308 156.979 57.5522V52.6194C156.979 52.2408 157.347 51.9311 157.797 51.9311H163.655C164.104 51.9311 164.472 52.2408 164.472 52.6194V57.5522Z" fill="#385785"/>
<path d="M117.775 67.5325H113.443V71.2035H117.775V67.5325Z" fill="#385785"/>
<path d="M117.775 76.7097H113.443V80.3807H117.775V76.7097Z" fill="#385785"/>
<path d="M117.815 58.057H113.469V61.6705H117.815V58.057Z" fill="#385785"/>
</svg>
