<svg width="187" height="147" viewBox="0 0 187 147" fill="none" xmlns="http://www.w3.org/2000/svg">
<path d="M178.93 146.77H7.91997C3.80997 146.77 0.469971 143.43 0.469971 139.32V7.51994C0.469971 3.40994 3.80997 0.0699463 7.91997 0.0699463H178.93C183.04 0.0699463 186.38 3.40994 186.38 7.51994V139.32C186.38 143.43 183.04 146.77 178.93 146.77ZM7.91997 3.95995C5.95997 3.95995 4.35997 5.55994 4.35997 7.51994V139.32C4.35997 141.28 5.95997 142.88 7.91997 142.88H178.93C180.89 142.88 182.49 141.28 182.49 139.32V7.51994C182.49 5.55994 180.89 3.95995 178.93 3.95995H7.91997Z" fill="#395886"/>
<path d="M61.3599 144.83H57.4699V112.72C57.4699 112.55 57.4099 112.44 57.3799 112.38H31.8799C29.7399 112.38 27.9899 110.49 27.9899 108.16V87.51C27.9899 87.34 27.9299 87.23 27.8999 87.17H2.11987V83.28H27.9999C30.1399 83.28 31.8899 85.17 31.8899 87.5V108.15C31.8899 108.32 31.9499 108.43 31.9799 108.49H57.4799C59.6199 108.49 61.3699 110.38 61.3699 112.71V144.82L61.3599 144.83Z" fill="#395886"/>
<path d="M129.09 144.83H125.2V112.72C125.2 110.39 126.94 108.5 129.09 108.5H154.59C154.63 108.45 154.68 108.34 154.68 108.16V87.51C154.68 85.18 156.42 83.29 158.57 83.29H184.45V87.18H158.67C158.63 87.23 158.58 87.3401 158.58 87.5201V108.17C158.58 110.5 156.84 112.39 154.69 112.39H129.19C129.15 112.44 129.1 112.55 129.1 112.73V144.84L129.09 144.83Z" fill="#395886"/>
<path d="M96 30.46C96.96 30.45 97.74 31.07 97.95 31.92C98.14 32.72 97.75 33.56 96.97 33.96C96.32 34.29 95.62 34.51 95.01 34.9C92.05 36.76 90.52 39.58 90.01 42.92C89.3 47.57 90.45 51.6499 94.02 54.9299C100.97 61.3199 100.52 72.91 94.36 78.84C94.13 79.06 93.9 79.2799 93.65 79.4799C92.75 80.1699 91.68 80.08 91 79.27C90.35 78.49 90.4 77.43 91.23 76.7C93 75.13 94.25 73.22 94.83 70.95C96.17 65.7 95.12 61.08 91.09 57.25C84.88 51.36 84.38 40.85 89.98 34.36C91.45 32.66 93.23 31.38 95.36 30.62C95.6 30.53 95.86 30.49 96.01 30.45L96 30.46Z" fill="#395886"/>
<path d="M79.3201 30.46C80.2801 30.45 81.0601 31.07 81.2701 31.92C81.4601 32.72 81.0701 33.56 80.2901 33.96C79.6401 34.29 78.9401 34.51 78.3301 34.9C75.3701 36.76 73.8401 39.58 73.3301 42.92C72.6201 47.57 73.7701 51.6499 77.3401 54.9299C84.2901 61.3199 83.8401 72.91 77.6801 78.84C77.4501 79.06 77.2201 79.2799 76.9701 79.4799C76.0701 80.1699 75.0001 80.08 74.3201 79.27C73.6701 78.49 73.7201 77.43 74.5501 76.7C76.3201 75.13 77.5701 73.22 78.1501 70.95C79.4901 65.7 78.4401 61.08 74.4101 57.25C68.2001 51.36 67.7001 40.85 73.3001 34.36C74.7701 32.66 76.5501 31.38 78.6801 30.62C78.9201 30.53 79.1801 30.49 79.3301 30.45L79.3201 30.46Z" fill="#395886"/>
<path d="M110.72 30.46C111.68 30.45 112.46 31.07 112.67 31.92C112.86 32.72 112.47 33.56 111.69 33.96C111.04 34.29 110.34 34.51 109.73 34.9C106.77 36.76 105.24 39.58 104.73 42.92C104.02 47.57 105.17 51.6499 108.74 54.9299C115.69 61.3199 115.24 72.91 109.08 78.84C108.85 79.06 108.62 79.2799 108.37 79.4799C107.47 80.1699 106.4 80.08 105.72 79.27C105.07 78.49 105.12 77.43 105.95 76.7C107.72 75.13 108.97 73.22 109.55 70.95C110.89 65.7 109.84 61.08 105.81 57.25C99.6 51.36 99.1 40.85 104.7 34.36C106.17 32.66 107.95 31.38 110.08 30.62C110.32 30.53 110.58 30.49 110.73 30.45L110.72 30.46Z" fill="#395886"/>
</svg>
