<svg width="390" height="299" viewBox="0 0 390 299" fill="none" xmlns="http://www.w3.org/2000/svg">
<g clip-path="url(#clip0_128_26)">
<path d="M383.615 264.905C383.563 271.011 378.599 275.917 372.491 275.917H283.331C283.398 264.517 283.353 245.557 283.031 214.25C282.77 188.222 277.641 170.559 268.027 158.727C279.944 153.217 294.986 151.778 311.8 151.778C357.262 151.778 382.845 161.195 383.391 213.795C383.66 240.785 383.675 256.189 383.615 264.897V264.905Z" stroke="#FCF6E5" stroke-width="17" stroke-linecap="round" stroke-linejoin="round"/>
<path d="M308.652 122.238C331.733 122.238 350.444 103.578 350.444 80.56C350.444 57.5419 331.733 38.8821 308.652 38.8821C285.571 38.8821 266.861 57.5419 266.861 80.56C266.861 103.578 285.571 122.238 308.652 122.238Z" stroke="#FCF6E5" stroke-width="17" stroke-linecap="round" stroke-linejoin="round"/>
<path d="M102.333 214.257C101.915 245.564 101.862 264.517 101.945 275.924H17.5165C11.4235 275.924 6.45932 271.026 6.39204 264.934C6.31727 256.226 6.32475 240.822 6.67613 213.803C7.39384 160.158 37.6871 151.785 78.2676 151.785C94.9244 151.785 108.92 153.053 119.977 157.243C109.099 169.023 102.685 187.006 102.333 214.257Z" stroke="#FCF6E5" stroke-width="17" stroke-linecap="round" stroke-linejoin="round"/>
<path d="M75.1126 124.631C98.1935 124.631 116.904 105.971 116.904 82.9533C116.904 59.9352 98.1935 41.2754 75.1126 41.2754C52.0318 41.2754 33.321 59.9352 33.321 82.9533C33.321 105.971 52.0318 124.631 75.1126 124.631Z" stroke="#FCF6E5" stroke-width="17" stroke-linecap="round" stroke-linejoin="round"/>
<path d="M283.338 275.924C283.338 276.938 283.338 277.878 283.323 278.772C283.256 286.467 276.998 292.663 269.276 292.663H116.015C108.307 292.663 102.049 286.482 101.967 278.81C101.952 277.9 101.952 276.946 101.945 275.917C101.87 264.517 101.922 245.557 102.333 214.25C102.685 186.999 109.099 169.016 119.977 157.235C136.118 139.759 162.09 135.986 192.683 135.986C227.559 135.986 253.179 140.378 268.027 158.727C277.641 170.559 282.777 188.214 283.032 214.25C283.353 245.557 283.398 264.509 283.331 275.917L283.338 275.924Z" stroke="#FCF6E5" stroke-width="17" stroke-linecap="round" stroke-linejoin="round"/>
<path d="M191.113 111.539C220.242 111.539 243.857 87.9886 243.857 58.9381C243.857 29.8875 220.242 6.3374 191.113 6.3374C161.983 6.3374 138.368 29.8875 138.368 58.9381C138.368 87.9886 161.983 111.539 191.113 111.539Z" stroke="#FCF6E5" stroke-width="17" stroke-linecap="round" stroke-linejoin="round"/>
</g>
<defs>
<clipPath id="clip0_128_26">
<rect width="390" height="299" fill="white"/>
</clipPath>
</defs>
</svg>
